<svg width="1080" height="1080" viewBox="0 0 1080 1080" fill="none" xmlns="http://www.w3.org/2000/svg">
<rect width="1080" height="1080" fill="#006600"/>
<path fill-rule="evenodd" clip-rule="evenodd" d="M805.59 404.908C786.659 408.997 773.169 425.566 774.38 443.241C774.793 449.267 776.731 455.474 779.476 459.562L781.355 462.361L779.305 464.706C777.359 466.933 718.732 527.845 696.84 550.385C691.187 556.206 682.262 565.404 677.006 570.827L667.45 580.687L663.122 578.333C648.276 570.261 633.638 570.882 616.773 580.297C616.412 580.499 470.855 494.243 469.763 493.18C469.44 492.865 470.207 490.93 471.513 488.764C474.943 483.076 476.125 479.068 476.463 471.976C476.824 464.41 475.662 459.091 472.36 453.185C459.637 430.432 426.181 426.097 407.346 444.762C395.262 456.736 392.873 473.59 401.197 488.142L403.135 491.532L384.548 511.038C310.357 588.894 297.507 602.367 294.48 605.475L291.069 608.977L287.138 606.609C280.482 602.6 273.823 600.835 265.353 600.835C259.348 600.835 257.156 601.132 252.789 602.538C227.214 610.772 217.141 637.45 231.735 658.297C245.789 678.372 277.175 680.792 294.778 663.158C306.959 650.955 309.136 632.496 299.996 618.898L297.515 615.206L301.933 610.563C304.362 608.009 312.459 599.525 319.926 591.711C340.287 570.399 385.518 522.951 398.182 509.616L409.342 497.866L411.407 499.417C423.182 508.256 441.931 509.92 455.083 503.294C456.928 502.364 459.239 501.038 460.219 500.346L462.003 499.089L518.409 532.603C596.058 578.741 609.169 586.544 609.4 586.756C609.51 586.858 608.413 588.778 606.962 591.024C602.902 597.306 601.296 602.753 601.296 610.24C601.296 617.668 602.909 623.202 606.825 629.216C613.26 639.097 623.586 645.408 636.382 647.28C653.451 649.776 671.94 640.195 679.043 625.173C681.64 619.679 682.488 614.893 682.097 607.926C681.719 601.174 680.102 596.195 676.597 590.984C675.351 589.134 674.333 587.324 674.333 586.96C674.333 586.597 679.026 581.493 684.761 575.618C690.497 569.743 707.081 552.584 721.615 537.488C736.149 522.392 752.219 505.726 757.324 500.451C762.43 495.176 771.213 486.099 776.841 480.279C782.47 474.459 787.257 469.611 787.477 469.508C787.698 469.404 789.484 470.377 791.445 471.67C807.289 482.117 829.369 480.337 843.043 467.509C851.316 459.748 855.042 451.568 855 441.257C854.958 431.053 851.327 422.856 843.527 415.354C833.96 406.153 818.955 402.021 805.59 404.908ZM823.72 418.214C831.163 420.267 838.255 426.532 840.868 433.36C844.948 444.026 839.989 456.234 829.265 461.92C824.126 464.644 820.592 465.504 814.583 465.493C790.77 465.45 778.297 440.842 794.084 425.051C801.415 417.719 812.583 415.143 823.72 418.214ZM442.992 446.511C445.409 447.023 448.66 448.092 450.218 448.887C454.445 451.044 459.845 456.5 461.905 460.696C463.483 463.91 463.727 465.201 463.727 470.358C463.727 475.87 463.561 476.616 461.485 480.445C456.158 490.27 446.754 495.053 434.174 494.335C429.103 494.046 427.584 493.659 423.411 491.597C417.365 488.608 412.534 483.576 410.479 478.127C408.458 472.769 408.856 465.217 411.422 460.202C414.859 453.486 421.873 448.29 429.838 446.559C435.222 445.39 437.662 445.38 442.992 446.511ZM648.392 586.767C657.186 588.84 663.109 593.261 666.694 600.43C668.769 604.579 669.043 605.715 669.043 610.164C669.043 614.365 668.719 615.883 667.096 619.314C663.321 627.298 655.586 632.69 645.9 634.093C633.972 635.82 621.804 629.96 616.889 620.12C614.284 614.907 613.732 610.287 615.085 605.007C617.375 596.064 625.142 588.874 634.768 586.784C640.281 585.587 643.374 585.583 648.392 586.767ZM274.403 614.854C281.853 617.156 287.066 621.471 290.634 628.288C292.206 631.291 292.44 632.503 292.451 637.688C292.467 644.923 290.759 649.209 285.942 654.027C269.648 670.324 239.322 660.946 238.03 639.211C236.995 621.812 255.915 609.143 274.403 614.854Z" fill="#EFF5ED"/>
</svg>
