<svg width="49" height="48" viewBox="0 0 49 48" fill="none" xmlns="http://www.w3.org/2000/svg">
<rect x="0.5" width="48" height="48" rx="24" fill="#EFF5ED"/>
<path d="M30.5 30.86H29.74C28.94 30.86 28.18 31.17 27.62 31.73L25.91 33.42C25.13 34.19 23.86 34.19 23.08 33.42L21.37 31.73C20.81 31.17 20.04 30.86 19.25 30.86H18.5C16.84 30.86 15.5 29.53 15.5 27.89V16.98C15.5 15.34 16.84 14.01 18.5 14.01H30.5C32.16 14.01 33.5 15.34 33.5 16.98V27.89C33.5 29.52 32.16 30.86 30.5 30.86Z" stroke="#609C47" stroke-width="1.5" stroke-miterlimit="10" stroke-linecap="round" stroke-linejoin="round"/>
<path d="M19.5 21.16C19.5 20.23 20.26 19.47 21.19 19.47C22.12 19.47 22.88 20.23 22.88 21.16C22.88 23.04 20.21 23.24 19.62 25.03C19.5 25.4 19.81 25.77 20.2 25.77H22.88" stroke="#609C47" stroke-width="1.5" stroke-linecap="round" stroke-linejoin="round"/>
<path d="M28.5398 25.7599V20.0499C28.5398 19.7899 28.3698 19.5598 28.1198 19.4898C27.8698 19.4198 27.5998 19.5198 27.4598 19.7398C26.7398 20.8998 25.9598 22.2199 25.2798 23.3799C25.1698 23.5699 25.1698 23.8199 25.2798 24.0099C25.3898 24.1999 25.5998 24.3198 25.8298 24.3198H29.4998" stroke="#609C47" stroke-width="1.5" stroke-linecap="round" stroke-linejoin="round"/>
</svg>
