<svg width="27" height="33" viewBox="0 0 27 33" fill="none" xmlns="http://www.w3.org/2000/svg">
<path d="M21.9765 17.2233C21.9403 13.1737 25.2818 11.2296 25.4329 11.1348C23.5526 8.38197 20.6262 8.00485 19.5823 7.96048C17.0932 7.70839 14.7231 9.42664 13.4615 9.42664C12.1999 9.42664 10.249 7.99678 8.18522 8.03712C5.46847 8.07745 2.96737 9.61622 1.56869 12.0484C-1.25084 16.943 0.849201 24.1972 3.59416 28.1702C4.93843 30.1123 6.53864 32.3004 8.64271 32.2198C10.6702 32.1391 11.436 30.9089 13.8827 30.9089C16.3294 30.9089 17.0187 32.2198 19.161 32.1814C21.3397 32.1391 22.7222 30.197 24.0564 28.2488C25.5962 25.9941 26.233 23.812 26.2693 23.697C26.2209 23.6769 22.0209 22.0655 21.9765 17.2233Z" fill="#FCFDFC"/>
<path d="M17.9517 5.33228C19.0682 3.97905 19.822 2.09741 19.6144 0.221924C18.006 0.286529 16.0592 1.29485 14.9044 2.64808C13.8705 3.84405 12.9636 5.75989 13.2093 7.5972C15.0031 7.73635 16.835 6.68352 17.9517 5.33228Z" fill="#FCFDFC"/>
</svg>
