<svg width="24" height="25" viewBox="0 0 24 25" fill="none" xmlns="http://www.w3.org/2000/svg">
<path d="M9.92963 2.98012L4.58964 5.95015C3.37964 6.62015 2.38965 8.30013 2.38965 9.68013V15.3301C2.38965 16.7101 3.37964 18.3901 4.58964 19.0601L9.92963 22.0301C11.0696 22.6601 12.9396 22.6601 14.0796 22.0301L19.4196 19.0601C20.6296 18.3901 21.6196 16.7101 21.6196 15.3301V9.68013C21.6196 8.30013 20.6296 6.62015 19.4196 5.95015L14.0796 2.98012C12.9296 2.34012 11.0696 2.34012 9.92963 2.98012Z" stroke="#609C47" stroke-width="1.5" stroke-linecap="round" stroke-linejoin="round"/>
<path d="M3.16992 7.94006L11.9999 13.05L20.7699 7.97003" stroke="#609C47" stroke-width="1.5" stroke-linecap="round" stroke-linejoin="round"/>
<path d="M12 22.11V13.04" stroke="#609C47" stroke-width="1.5" stroke-linecap="round" stroke-linejoin="round"/>
<path d="M16.9998 13.7401V10.0801L7.50977 4.6001" stroke="#609C47" stroke-width="1.5" stroke-linecap="round" stroke-linejoin="round"/>
</svg>
