<svg width="48" height="48" viewBox="0 0 48 48" fill="none" xmlns="http://www.w3.org/2000/svg">
<rect width="48" height="48" rx="24" fill="#609C47"/>
<path d="M32.6211 20.45C31.5711 15.83 27.5411 13.75 24.0011 13.75C24.0011 13.75 24.0011 13.75 23.9911 13.75C20.4611 13.75 16.4211 15.82 15.3711 20.44C14.2011 25.6 17.3611 29.97 20.2211 32.72C21.2811 33.74 22.6411 34.25 24.0011 34.25C25.3611 34.25 26.7211 33.74 27.7711 32.72C30.6311 29.97 33.7911 25.61 32.6211 20.45ZM24.0011 25.46C22.2611 25.46 20.8511 24.05 20.8511 22.31C20.8511 20.57 22.2611 19.16 24.0011 19.16C25.7411 19.16 27.1511 20.57 27.1511 22.31C27.1511 24.05 25.7411 25.46 24.0011 25.46Z" fill="#EFF5ED"/>
</svg>
