<svg width="48" height="48" viewBox="0 0 48 48" fill="none" xmlns="http://www.w3.org/2000/svg">
<rect width="48" height="48" rx="24" fill="#609C47"/>
<path d="M14.8242 16.7957L14.8242 16.7957L14.8253 16.7931C15.0367 16.2557 15.3733 15.7564 15.8531 15.3037L15.8532 15.3038L15.8608 15.2963C16.4253 14.7406 17.0046 14.5 17.59 14.5C17.8 14.5 18.0054 14.5452 18.1836 14.6308L18.1836 14.6308L18.1905 14.634C18.3762 14.7197 18.5339 14.844 18.6589 15.0246L18.6589 15.0246L18.6622 15.0293L20.9822 18.2993L20.9822 18.2993L20.9842 18.3022C21.1461 18.527 21.255 18.7227 21.3272 18.8993L21.3272 18.8993L21.3304 18.907C21.4009 19.0715 21.43 19.2138 21.43 19.32C21.43 19.4594 21.3901 19.6104 21.2929 19.77L21.2887 19.7769L21.2847 19.784C21.1826 19.9646 21.0238 20.1691 20.8064 20.3864L20.8064 20.3864L20.7997 20.3934L20.0426 21.1804C19.8338 21.3912 19.74 21.6505 19.74 21.93C19.74 22.0574 19.7567 22.1684 19.7849 22.2813L19.7918 22.3089L19.8018 22.3356C19.8195 22.3826 19.8372 22.4243 19.8497 22.4539C19.8509 22.4568 19.8521 22.4596 19.8533 22.4623C19.8676 22.4961 19.8727 22.5092 19.8757 22.5181L19.8897 22.5603L19.9111 22.5994C20.1147 22.9727 20.4495 23.4325 20.8983 23.963L20.8983 23.963L20.9019 23.9672C21.357 24.4931 21.8442 25.0311 22.3731 25.5702L22.373 25.5703L22.3815 25.5785C22.6071 25.7979 22.8343 26.0187 23.0627 26.2302L20.5031 28.7898C20.2725 28.5766 20.0462 28.3591 19.8243 28.1372C18.8121 27.1151 17.8992 26.045 17.0851 24.9269C16.2832 23.812 15.6434 22.7047 15.1805 21.6152C14.7218 20.5255 14.5 19.5018 14.5 18.54C14.5 17.9193 14.6094 17.3327 14.8242 16.7957Z" fill="#EFF5ED" stroke="#EFF5ED"/>
<path d="M33.9696 30.3291C33.9696 30.6091 33.9196 30.8991 33.8196 31.1791C33.7896 31.2591 33.7596 31.3391 33.7196 31.4191C33.5496 31.7791 33.3296 32.1191 33.0396 32.4391C32.5496 32.9791 32.0096 33.3691 31.3996 33.6191C31.3896 33.6191 31.3796 33.6291 31.3696 33.6291C30.7796 33.8691 30.1396 33.9991 29.4496 33.9991C28.4296 33.9991 27.3396 33.7591 26.1896 33.2691C25.0396 32.7791 23.8896 32.1191 22.7496 31.2891C22.3596 30.9991 21.9696 30.7091 21.5996 30.3991L24.8696 27.1291C25.1496 27.3391 25.3996 27.4991 25.6096 27.6091C25.6596 27.6291 25.7196 27.6591 25.7896 27.6891C25.8696 27.7191 25.9496 27.7291 26.0396 27.7291C26.2096 27.7291 26.3396 27.6691 26.4496 27.5591L27.2096 26.8091C27.4596 26.5591 27.6996 26.3691 27.9296 26.2491C28.1596 26.1091 28.3896 26.0391 28.6396 26.0391C28.8296 26.0391 29.0296 26.0791 29.2496 26.1691C29.4696 26.2591 29.6996 26.3891 29.9496 26.5591L33.2596 28.9091C33.5196 29.0891 33.6996 29.2991 33.8096 29.5491C33.9096 29.7991 33.9696 30.0491 33.9696 30.3291Z" fill="#EFF5ED"/>
</svg>
