<svg width="49" height="48" viewBox="0 0 49 48" fill="none" xmlns="http://www.w3.org/2000/svg">
<rect x="0.5" width="48" height="48" rx="24" fill="#EFF5ED"/>
<path d="M21.341 22.6197L21.3912 22.6215L21.4351 22.6142C21.4367 22.614 21.4394 22.6138 21.4432 22.6136C21.4546 22.613 21.4711 22.6125 21.4923 22.6125C21.5349 22.6125 21.5871 22.6144 21.6402 22.6185L21.6709 22.6209L21.7015 22.6195C23.9301 22.5171 25.6773 20.6862 25.6886 18.4425V18.44C25.6886 16.1339 23.8047 14.25 21.4986 14.25C19.1925 14.25 17.3086 16.1339 17.3086 18.44C17.3086 20.7096 19.0821 22.5402 21.341 22.6197ZM21.6586 23.12H21.6584H21.6582H21.6581H21.6579H21.6577H21.6575H21.6574H21.6572H21.657H21.6568H21.6567H21.6565H21.6563H21.6562H21.656H21.6558H21.6556H21.6555H21.6553H21.6551H21.655H21.6548H21.6546H21.6544H21.6543H21.6541H21.6539H21.6538H21.6536H21.6534H21.6533H21.6531H21.6529H21.6527H21.6526H21.6524H21.6522H21.6521H21.6519H21.6517H21.6516H21.6514H21.6512H21.6511H21.6509H21.6507H21.6506H21.6504H21.6502H21.6501H21.6499H21.6497H21.6496H21.6494H21.6492H21.6491H21.6489H21.6488H21.6486H21.6484H21.6483H21.6481H21.6479H21.6478H21.6476H21.6474H21.6473H21.6471H21.647H21.6468H21.6466H21.6465H21.6463H21.6462H21.646H21.6458H21.6457H21.6455H21.6453H21.6452H21.645H21.6449H21.6447H21.6445H21.6444H21.6442H21.6441H21.6439H21.6438H21.6436H21.6434H21.6433H21.6431H21.643H21.6428H21.6426H21.6425H21.6423H21.6422H21.642H21.6419H21.6417H21.6415H21.6414H21.6412H21.6411H21.6409H21.6408H21.6406H21.6404H21.6403H21.6401H21.64H21.6398H21.6397H21.6395H21.6394H21.6392H21.639H21.6389H21.6387H21.6386H21.6384H21.6383H21.6381H21.638H21.6378H21.6377H21.6375H21.6373H21.6372H21.637H21.6369H21.6367H21.6366H21.6364H21.6363H21.6361H21.636H21.6358H21.6357H21.6355H21.6354H21.6352H21.6351H21.6349H21.6348H21.6346H21.6345H21.6343H21.6341H21.634H21.6338H21.6337H21.6335H21.6334H21.6332H21.6331H21.6329H21.6328H21.6326H21.6325H21.6323H21.6322H21.632H21.6319H21.6317H21.6316H21.6314H21.6313H21.6311H21.631H21.6308H21.6307H21.6305H21.6304H21.6302H21.6301H21.6299H21.6298H21.6296H21.6295H21.6293H21.6292H21.629H21.6289H21.6288H21.6286H21.6285H21.6283H21.6282H21.628H21.6279H21.6277H21.6276H21.6274H21.6273H21.6271H21.627H21.6268H21.6267H21.6265H21.6264H21.6262H21.6261H21.6259H21.6258H21.6256H21.6255H21.6253H21.6252H21.6251H21.6249H21.6248H21.6246H21.6245H21.6243H21.6242H21.624H21.6239H21.6237H21.6236H21.6234H21.6233H21.6231H21.623H21.6228H21.6227H21.6226H21.6224H21.6223H21.6221H21.622H21.6218H21.6217H21.6215H21.6214H21.6212H21.6211H21.6209H21.6208H21.6206H21.6205H21.6204H21.6202H21.6201H21.6199H21.6198H21.6196H21.6195H21.6193H21.6192H21.619H21.6189H21.6187H21.6186H21.6184H21.6183H21.6182H21.618H21.6179H21.6177H21.6176H21.6174H21.6173H21.6171H21.617H21.6168H21.6167H21.6165H21.6165C21.5352 23.1098 21.451 23.1106 21.3745 23.1189C18.7612 23.0178 16.8086 20.9641 16.8086 18.44C16.8086 15.8561 18.9147 13.75 21.4986 13.75C24.0821 13.75 26.1881 15.8556 26.1886 18.439C26.1791 20.98 24.1942 23.0348 21.6803 23.12H21.6803H21.6803H21.6802H21.6802H21.6801H21.68H21.68H21.6799H21.6799H21.6798H21.6797H21.6797H21.6796H21.6796H21.6795H21.6795H21.6794H21.6793H21.6793H21.6792H21.6792H21.6791H21.679H21.679H21.6789H21.6789H21.6788H21.6788H21.6787H21.6786H21.6786H21.6785H21.6785H21.6784H21.6783H21.6783H21.6782H21.6782H21.6781H21.678H21.678H21.6779H21.6779H21.6778H21.6778H21.6777H21.6776H21.6776H21.6775H21.6775H21.6774H21.6773H21.6773H21.6772H21.6772H21.6771H21.6771H21.677H21.6769H21.6769H21.6768H21.6768H21.6767H21.6766H21.6766H21.6765H21.6765H21.6764H21.6763H21.6763H21.6762H21.6762H21.6761H21.6761H21.676H21.6759H21.6759H21.6758H21.6758H21.6757H21.6756H21.6756H21.6755H21.6755H21.6754H21.6754H21.6753H21.6752H21.6752H21.6751H21.6751H21.675H21.6749H21.6749H21.6748H21.6748H21.6747H21.6746H21.6746H21.6745H21.6745H21.6744H21.6744H21.6743H21.6742H21.6742H21.6741H21.6741H21.674H21.6739H21.6739H21.6738H21.6738H21.6737H21.6737H21.6736H21.6735H21.6735H21.6734H21.6734H21.6733H21.6732H21.6732H21.6731H21.6731H21.673H21.6729H21.6729H21.6728H21.6728H21.6727H21.6727H21.6726H21.6725H21.6725H21.6724H21.6724H21.6723H21.6722H21.6722H21.6721H21.6721H21.672H21.672H21.6719H21.6718H21.6718H21.6717H21.6717H21.6716H21.6715H21.6715H21.6714H21.6714H21.6713H21.6713H21.6712H21.6711H21.6711H21.671H21.671H21.6709H21.6708H21.6708H21.6707H21.6707H21.6706H21.6705H21.6705H21.6704H21.6704H21.6703H21.6703H21.6702H21.6701H21.6701H21.67H21.67H21.6699H21.6698H21.6698H21.6697H21.6697H21.6696H21.6696H21.6695H21.6694H21.6694H21.6693H21.6693H21.6692H21.6691H21.6691H21.669H21.669H21.6689H21.6688H21.6688H21.6687H21.6687H21.6686H21.6686H21.6685H21.6684H21.6684H21.6683H21.6683H21.6682H21.6681H21.6681H21.668H21.668H21.6679H21.6679H21.6678H21.6677H21.6677H21.6676H21.6676H21.6675H21.6674H21.6674H21.6673H21.6673H21.6672H21.6671H21.6671H21.667H21.667H21.6669H21.6669H21.6668H21.6667H21.6667H21.6666H21.6666H21.6665H21.6664H21.6664H21.6663H21.6663H21.6662H21.6662H21.6661H21.666H21.666H21.6659H21.6659H21.6658H21.6657H21.6657H21.6656H21.6656H21.6655H21.6654H21.6654H21.6653H21.6653H21.6652H21.6652H21.6651H21.665H21.665H21.6649H21.6649H21.6648H21.6647H21.6647H21.6646H21.6646H21.6645H21.6645H21.6644H21.6643H21.6643H21.6642H21.6642H21.6641H21.664H21.664H21.6639H21.6639H21.6638H21.6638H21.6637H21.6636H21.6636H21.6635H21.6635H21.6634H21.6633H21.6633H21.6632H21.6632H21.6631H21.663H21.663H21.6629H21.6629H21.6628H21.6628H21.6627H21.6626H21.6626H21.6625H21.6625H21.6624H21.6623H21.6623H21.6622H21.6622H21.6621H21.6621H21.662H21.6619H21.6619H21.6618H21.6618H21.6617H21.6616H21.6616H21.6615H21.6615H21.6614H21.6613H21.6613H21.6612H21.6612H21.6611H21.6611H21.661H21.6609H21.6609H21.6608H21.6608H21.6607H21.6606H21.6606H21.6605H21.6605H21.6604H21.6604H21.6603H21.6602H21.6602H21.6601H21.6601H21.66H21.6599H21.6599H21.6598H21.6598H21.6597H21.6596H21.6596H21.6595H21.6595H21.6594H21.6594H21.6593H21.6592H21.6592H21.6591H21.6591H21.659H21.6589H21.6589H21.6588H21.6588H21.6587H21.6587H21.6586Z" stroke="#609C47"/>
<path d="M32.6584 19.5C32.6584 21.5267 31.0772 23.1651 29.0594 23.25L29.0057 23.232L28.8999 23.2424C28.8248 23.2497 28.739 23.2261 28.6711 23.1761C28.605 23.1275 28.5801 23.0732 28.576 23.0314C28.5671 22.9403 28.5917 22.8686 28.6245 22.8235C28.6532 22.7838 28.6932 22.7563 28.7514 22.7474C28.8443 22.7403 28.9491 22.74 29.0584 22.74H29.0721L29.0858 22.7393C30.8108 22.6447 32.1584 21.2256 32.1584 19.49C32.1584 17.6939 30.7045 16.24 28.9084 16.24V16.2399L28.8962 16.2401C28.7743 16.2431 28.6584 16.1363 28.6584 16C28.6584 15.8661 28.7745 15.75 28.9084 15.75C30.9723 15.75 32.6584 17.4361 32.6584 19.5Z" fill="#609C47" stroke="#609C47"/>
<path d="M21.6716 34.55C19.7116 34.55 17.7416 34.05 16.2516 33.05C14.8616 32.13 14.1016 30.87 14.1016 29.5C14.1016 28.13 14.8616 26.86 16.2516 25.93C19.2516 23.94 24.1116 23.94 27.0916 25.93C28.4716 26.85 29.2416 28.11 29.2416 29.48C29.2416 30.85 28.4816 32.12 27.0916 33.05C25.5916 34.05 23.6316 34.55 21.6716 34.55ZM17.0816 27.19C16.1216 27.83 15.6016 28.65 15.6016 29.51C15.6016 30.36 16.1316 31.18 17.0816 31.81C19.5716 33.48 23.7716 33.48 26.2616 31.81C27.2216 31.17 27.7416 30.35 27.7416 29.49C27.7416 28.64 27.2116 27.82 26.2616 27.19C23.7716 25.53 19.5716 25.53 17.0816 27.19Z" fill="#609C47"/>
<path d="M30.8382 32.75C30.4882 32.75 30.1782 32.51 30.1082 32.15C30.0282 31.74 30.2882 31.35 30.6882 31.26C31.3182 31.13 31.8982 30.88 32.3482 30.53C32.9182 30.1 33.2282 29.56 33.2282 28.99C33.2282 28.42 32.9182 27.88 32.3582 27.46C31.9182 27.12 31.3682 26.88 30.7182 26.73C30.3182 26.64 30.0582 26.24 30.1482 25.83C30.2382 25.43 30.6382 25.17 31.0482 25.26C31.9082 25.45 32.6582 25.79 33.2682 26.26C34.1982 26.96 34.7282 27.95 34.7282 28.99C34.7282 30.03 34.1882 31.02 33.2582 31.73C32.6382 32.21 31.8582 32.56 30.9982 32.73C30.9382 32.75 30.8882 32.75 30.8382 32.75Z" fill="#609C47"/>
</svg>
