<svg width="49" height="48" viewBox="0 0 49 48" fill="none" xmlns="http://www.w3.org/2000/svg">
<rect x="0.5" width="48" height="48" rx="24" fill="#EFF5ED"/>
<path d="M24.4998 26H25.4998C26.5998 26 27.4998 25.1 27.4998 24V14H18.4998C16.9998 14 15.6898 14.83 15.0098 16.05" stroke="#609C47" stroke-width="1.5" stroke-linecap="round" stroke-linejoin="round"/>
<path d="M14.5 29C14.5 30.66 15.84 32 17.5 32H18.5C18.5 30.9 19.4 30 20.5 30C21.6 30 22.5 30.9 22.5 32H26.5C26.5 30.9 27.4 30 28.5 30C29.6 30 30.5 30.9 30.5 32H31.5C33.16 32 34.5 30.66 34.5 29V26H31.5C30.95 26 30.5 25.55 30.5 25V22C30.5 21.45 30.95 21 31.5 21H32.79L31.08 18.01C30.72 17.39 30.06 17 29.34 17H27.5V24C27.5 25.1 26.6 26 25.5 26H24.5" stroke="#609C47" stroke-width="1.5" stroke-linecap="round" stroke-linejoin="round"/>
<path d="M20.5 34C21.6046 34 22.5 33.1046 22.5 32C22.5 30.8954 21.6046 30 20.5 30C19.3954 30 18.5 30.8954 18.5 32C18.5 33.1046 19.3954 34 20.5 34Z" stroke="#609C47" stroke-width="1.5" stroke-linecap="round" stroke-linejoin="round"/>
<path d="M28.5 34C29.6046 34 30.5 33.1046 30.5 32C30.5 30.8954 29.6046 30 28.5 30C27.3954 30 26.5 30.8954 26.5 32C26.5 33.1046 27.3954 34 28.5 34Z" stroke="#609C47" stroke-width="1.5" stroke-linecap="round" stroke-linejoin="round"/>
<path d="M34.5 24V26H31.5C30.95 26 30.5 25.55 30.5 25V22C30.5 21.45 30.95 21 31.5 21H32.79L34.5 24Z" stroke="#609C47" stroke-width="1.5" stroke-linecap="round" stroke-linejoin="round"/>
<path d="M14.5 20H20.5" stroke="#609C47" stroke-width="1.5" stroke-linecap="round" stroke-linejoin="round"/>
<path d="M14.5 23H18.5" stroke="#609C47" stroke-width="1.5" stroke-linecap="round" stroke-linejoin="round"/>
<path d="M14.5 26H16.5" stroke="#609C47" stroke-width="1.5" stroke-linecap="round" stroke-linejoin="round"/>
</svg>
