<svg width="49" height="48" viewBox="0 0 49 48" fill="none" xmlns="http://www.w3.org/2000/svg">
<rect x="0.5" width="48" height="48" rx="24" fill="#EFF5ED"/>
<path d="M14.75 25.25V25.75H15.25H25.5C26.4661 25.75 27.25 24.9661 27.25 24V14.75V14.25H26.75H18.5C16.4339 14.25 14.75 15.9339 14.75 18V25.25ZM25.5 26.25H14.5C14.3661 26.25 14.25 26.1339 14.25 26V18C14.25 15.6561 16.1561 13.75 18.5 13.75H27.5C27.6339 13.75 27.75 13.8661 27.75 14V24C27.75 25.2439 26.7439 26.25 25.5 26.25Z" stroke="#609C47"/>
<path d="M31.2956 17.8875L31.296 17.8882L33.0047 20.876C33.0049 20.8763 33.0051 20.8766 33.0052 20.8769C33.0484 20.9541 33.0483 21.0569 33.0047 21.134C32.9682 21.1986 32.8896 21.25 32.79 21.25H31.5C31.0839 21.25 30.75 21.5839 30.75 22V25C30.75 25.4161 31.0839 25.75 31.5 25.75H34.5C34.6339 25.75 34.75 25.8661 34.75 26V29C34.75 30.7939 33.2939 32.25 31.5 32.25H30.5C30.3661 32.25 30.25 32.1339 30.25 32C30.25 31.0339 29.4661 30.25 28.5 30.25C27.5339 30.25 26.75 31.0339 26.75 32C26.75 32.1339 26.6339 32.25 26.5 32.25H22.5C22.3661 32.25 22.25 32.1339 22.25 32C22.25 31.0339 21.4661 30.25 20.5 30.25C19.5339 30.25 18.75 31.0339 18.75 32C18.75 32.1339 18.6339 32.25 18.5 32.25H17.5C15.7061 32.25 14.25 30.7939 14.25 29V26C14.25 25.8661 14.3661 25.75 14.5 25.75H25.5C26.4661 25.75 27.25 24.9661 27.25 24V17C27.25 16.8661 27.3661 16.75 27.5 16.75H29.34C30.15 16.75 30.8943 17.1833 31.2956 17.8875ZM30.6694 31.3879L30.7733 31.75H31.15H31.5C33.0161 31.75 34.25 30.5161 34.25 29V26.75V26.25H33.75H31.5C30.8161 26.25 30.25 25.6839 30.25 25V22C30.25 21.3143 30.808 20.75 31.5 20.75H32.3622L31.934 20.0017L30.8655 18.1343C30.8652 18.1338 30.8649 18.1334 30.8647 18.1329C30.5536 17.5827 29.9653 17.25 29.34 17.25H28.25H27.75V17.75V24C27.75 25.2439 26.7439 26.25 25.5 26.25H15.25H14.75V26.75V29C14.75 30.5161 15.9839 31.75 17.5 31.75H17.85H18.2267L18.3306 31.3879C18.6013 30.4447 19.4708 29.75 20.5 29.75C21.5292 29.75 22.3987 30.4447 22.6694 31.3879L22.7733 31.75H23.15H25.86H26.2367L26.3406 31.3879C26.6113 30.4447 27.4808 29.75 28.51 29.75C29.5371 29.75 30.3981 30.4426 30.6694 31.3879Z" fill="#609C47" stroke="#609C47"/>
<path d="M20.5 34.75C18.98 34.75 17.75 33.52 17.75 32C17.75 30.48 18.98 29.25 20.5 29.25C22.02 29.25 23.25 30.48 23.25 32C23.25 33.52 22.02 34.75 20.5 34.75ZM20.5 30.75C19.81 30.75 19.25 31.31 19.25 32C19.25 32.69 19.81 33.25 20.5 33.25C21.19 33.25 21.75 32.69 21.75 32C21.75 31.31 21.19 30.75 20.5 30.75Z" fill="#609C47"/>
<path d="M28.5 34.75C26.98 34.75 25.75 33.52 25.75 32C25.75 30.48 26.98 29.25 28.5 29.25C30.02 29.25 31.25 30.48 31.25 32C31.25 33.52 30.02 34.75 28.5 34.75ZM28.5 30.75C27.81 30.75 27.25 31.31 27.25 32C27.25 32.69 27.81 33.25 28.5 33.25C29.19 33.25 29.75 32.69 29.75 32C29.75 31.31 29.19 30.75 28.5 30.75Z" fill="#609C47"/>
<path d="M34.5 26.75H31.5C30.54 26.75 29.75 25.96 29.75 25V22C29.75 21.04 30.54 20.25 31.5 20.25H32.79C33.06 20.25 33.31 20.39 33.44 20.63L35.15 23.63C35.21 23.74 35.25 23.87 35.25 24V26C35.25 26.41 34.91 26.75 34.5 26.75ZM31.5 21.75C31.36 21.75 31.25 21.86 31.25 22V25C31.25 25.14 31.36 25.25 31.5 25.25H33.75V24.2L32.35 21.75H31.5Z" fill="#609C47"/>
</svg>
