<svg width="157" height="50" viewBox="0 0 157 50" fill="none" xmlns="http://www.w3.org/2000/svg">
<path fill-rule="evenodd" clip-rule="evenodd" d="M153.45 0.0791327C151.803 0.464958 150.855 2.26855 151.573 3.65093L151.826 4.13773L148.261 7.8034C143.244 12.9624 143.652 12.6052 143.151 12.2785C142.61 11.9255 141.159 11.9108 140.496 12.2519L139.993 12.5112L137.989 11.3277C136.887 10.6769 134.512 9.28337 132.711 8.23123L129.437 6.31826L129.683 5.84341C130.034 5.16757 130.012 4.09524 129.633 3.44929C128.675 1.81616 126.348 1.59158 124.999 3.00223C124.237 3.79844 124.083 4.52178 124.464 5.51494L124.747 6.25234L123.379 7.64878C120.396 10.6921 117.75 13.4357 117.281 13.9703L116.787 14.5329L116.198 14.2531C114.332 13.367 112.049 14.6352 112.049 16.5583C112.049 18.5068 114.256 19.7163 116.204 18.8356C117.48 18.2585 118.066 16.7475 117.485 15.5299L117.204 14.9405L118.432 13.6087C119.108 12.8762 120.891 11.0076 122.396 9.45657L125.131 6.63639L125.754 6.93045C126.532 7.29818 127.733 7.30884 128.422 6.9542L128.947 6.68373L134.211 9.77858C137.106 11.4807 139.474 12.8943 139.474 12.9201C139.474 12.9458 139.365 13.1751 139.232 13.4297C138.864 14.1314 138.92 15.279 139.354 15.9285C139.812 16.6145 140.958 17.2057 141.821 17.201C143.871 17.1899 145.139 15.412 144.425 13.5502L144.14 12.8069L145.918 11.007C146.897 10.0169 148.713 8.16693 149.955 6.89571L152.213 4.58447L152.781 4.87562C153.52 5.25401 154.797 5.24755 155.586 4.86108C156.695 4.31772 157.336 2.64403 156.818 1.64295C156.179 0.408571 154.793 -0.235441 153.45 0.0791327ZM155.221 1.13127C156.224 1.64764 156.444 3.0242 155.645 3.77243C154.148 5.17258 151.555 3.79343 152.304 1.99485C152.713 1.01122 154.157 0.583549 155.221 1.13127ZM128.039 3.15055C129.229 3.72428 129.451 4.91956 128.537 5.83017C128.055 6.31035 127.882 6.3795 127.163 6.3795C126.475 6.3795 126.248 6.29774 125.768 5.87799C125.271 5.44369 125.194 5.27938 125.194 4.65039C125.194 3.62831 125.909 2.96248 127.131 2.84696C127.259 2.83485 127.667 2.97153 128.039 3.15055ZM143.242 13.4489C144.542 14.7428 143.12 16.7339 141.254 16.2337C140.532 16.0402 139.799 15.2574 139.799 14.6799C139.799 13.046 142.034 12.2467 143.242 13.4489ZM116.273 15.3508C117.159 16.1962 117.034 17.2468 115.961 17.9661C115.657 18.1693 115.194 18.3356 114.93 18.3356C113.861 18.3356 112.861 17.477 112.861 16.5583C112.861 15.0192 115.096 14.2282 116.273 15.3508ZM88.8353 21.2034C88.8272 25.0155 88.8139 25.1835 88.5513 24.8022C87.7489 23.6368 87.3863 23.3709 86.2491 23.1133C82.3711 22.235 79.0172 23.7163 77.3981 27.0218L76.7932 28.2572L76.5439 27.6183C76.1815 26.689 75.1282 25.2379 74.3835 24.6422C71.864 22.6262 67.3264 22.2885 64.2236 23.8859C63.9521 24.0257 63.322 24.5114 62.8235 24.9651C61.1439 26.4932 60.1459 29.2381 60.3337 31.8126C60.6774 36.5284 63.8755 39.5085 68.6402 39.5531C70.5372 39.5708 71.6404 39.3359 73.1218 38.5989C74.4426 37.9416 75.8362 36.476 76.3584 35.1949L76.7206 34.3065L77.0505 35.086C77.5228 36.2021 78.4023 37.4931 79.0558 38.0293C80.878 39.5248 83.5535 39.9827 86.1533 39.2442C87.2223 38.9406 87.5898 38.6785 88.2256 37.7666L88.7626 36.9967L88.8437 38.0469L88.9249 39.0971L91.2373 39.1419L93.5498 39.1868V28.1956V17.2046H91.1968H88.8437L88.8353 21.2034ZM125.033 27.0199C125.033 32.963 125.097 37.061 125.193 37.4078C125.377 38.0645 126.186 38.9087 126.898 39.1862C127.43 39.3934 129.737 39.5098 130.833 39.3844L131.523 39.3056V37.7068V36.1081H130.991C130.698 36.1081 130.297 35.9949 130.098 35.8565L129.738 35.6051V26.9097C129.738 22.1273 129.692 17.9872 129.636 17.7095L129.535 17.2046H127.283H125.032L125.033 27.0199ZM7.25312 18.5002C3.81884 19.3959 1.28617 21.9248 0.298222 25.4446C0.0724937 26.2492 0.00271435 27.0805 0.00011791 28.9991C-0.00280309 31.174 0.0465295 31.6629 0.375142 32.7152C1.43303 36.1033 3.80715 38.43 7.07591 39.2824C9.43072 39.8964 13.0278 39.5004 15.0794 38.4013C16.1597 37.8225 17.6098 36.3624 18.1233 35.3366L18.5382 34.5075L18.7356 35.5058C18.9913 36.8004 19.3741 37.527 20.1849 38.2562C21.4162 39.3639 23.1445 39.8093 25.0613 39.5132C26.828 39.2403 27.6399 38.7958 28.0535 37.875L28.3953 37.1145L28.6387 38.1057L28.8821 39.0971L31.104 39.142L33.326 39.187L33.2557 36.6377C33.2171 35.2356 33.1531 32.5229 33.1137 30.6093C33.0515 27.596 32.9968 27.0102 32.7052 26.2342C31.8489 23.9552 29.7847 22.8553 26.3775 22.8619C23.3225 22.8679 20.8736 24.1065 19.8345 26.1716C19.6403 26.5578 19.2266 28.1022 19.2266 28.4415C19.2266 28.4816 20.2308 28.5136 21.4579 28.5126L23.6893 28.5108L24.0138 27.6779C24.1923 27.2199 24.5308 26.7039 24.7661 26.531C25.351 26.1014 26.4749 25.9965 27.211 26.3027C28.0417 26.6483 28.332 27.1706 28.3663 28.3825L28.3953 29.403L26.3668 29.5114C22.7133 29.7068 20.7824 30.5091 19.392 32.4095L18.8729 33.1191L18.928 32.5536L18.9832 31.9881L16.6836 31.9434L14.3839 31.8986L14.1291 32.7712C13.9889 33.2511 13.6363 33.9953 13.3455 34.4249C11.7579 36.7697 7.80178 36.6054 6.15401 34.1263C4.44555 31.5561 4.41748 26.2288 6.09932 23.7476C7.04264 22.3562 8.34557 21.6791 10.0579 21.6904C12.304 21.7052 13.641 22.7104 14.2788 24.8639L14.4748 25.5254L16.6397 25.5706C17.8304 25.5957 18.8905 25.5831 18.9957 25.543C19.3074 25.4239 18.9598 23.8895 18.333 22.6171C17.494 20.9145 16.0598 19.5782 14.3583 18.9135C12.3957 18.147 9.29798 17.9667 7.25312 18.5002ZM41.5125 23.2657C40.5544 23.7425 40.435 23.8649 39.719 25.1051L39.1967 26.0101L39.1796 25.2022C39.1626 24.3912 39.0816 23.7526 38.9502 23.3938C38.9002 23.2576 38.2396 23.2017 36.6919 23.2028L34.5042 23.2044L34.401 24.2033C34.3442 24.7527 34.3207 28.3286 34.3486 32.1497L34.3996 39.0971L36.782 39.1417L39.1644 39.1865L39.2161 34.537L39.2679 29.8877L39.7547 28.9183C40.3719 27.6893 41.366 26.9738 42.6842 26.8098C43.1786 26.7484 43.6293 26.7441 43.6859 26.8003C43.7424 26.8565 43.6687 27.2834 43.5223 27.7489C42.6498 30.5224 42.8233 33.4897 43.9818 35.609C44.5666 36.6789 45.9362 37.9607 47.0246 38.4568C48.2733 39.026 50.1158 39.2766 51.4923 39.0645C53.2058 38.8005 53.9883 38.3851 54.6694 37.378L55.2523 36.5164L55.2513 37.8875C55.2503 39.5713 55.0544 40.3155 54.4245 41.0298C53.747 41.7981 52.6896 42.1648 51.1853 42.1532C49.5583 42.1408 48.6842 41.6932 48.1354 40.5916L47.7531 39.8242H45.5575H43.3619L43.4657 40.5786C43.9076 43.7878 46.7061 45.6311 51.1468 45.6379C54.2862 45.6426 55.8754 45.1629 57.7309 43.6505C58.6544 42.8977 59.2467 41.9433 59.6925 40.4903C59.9971 39.4972 60.025 38.8863 60.082 31.9881C60.1157 27.9004 60.0967 24.2428 60.0396 23.8601L59.9356 23.1642L57.7156 23.2138L55.4957 23.2634L55.4499 23.9905C55.3754 25.173 55.2928 25.2153 54.7081 24.37C54.0264 23.3844 53.1511 23.0278 51.1142 22.9059C48.7289 22.763 46.9907 23.3473 45.4307 24.8161C44.9692 25.2507 44.547 25.6062 44.4923 25.6062C44.4376 25.6062 44.3715 25.0064 44.3456 24.2732L44.2985 22.9403L43.3249 22.8942C42.5417 22.8572 42.1871 22.9299 41.5125 23.2657ZM99.7032 23.1458C97.5537 23.7245 95.706 25.2473 94.7386 27.2378C94.0519 28.6509 93.8111 29.7864 93.8343 31.5034C93.9063 36.8234 97.7794 40.1779 103.085 39.5156C105.761 39.1815 107.784 37.9117 108.865 35.8885L109.239 35.1875L109.517 36.0921C110.021 37.7317 111.085 38.796 112.78 39.355C113.602 39.6264 115.825 39.623 116.674 39.349C118.103 38.8884 118.408 38.6669 118.788 37.8162L119.153 36.9967L119.273 37.8046C119.484 39.2238 119.397 39.1779 121.894 39.1779H124.1L123.979 38.1681C123.913 37.6128 123.811 34.7954 123.753 31.9073C123.651 26.8699 123.632 26.6255 123.274 25.8978C122.83 24.9932 121.84 23.968 121.051 23.5953C119.551 22.8861 116.49 22.6515 114.722 23.1099C112.247 23.7517 110.811 25.0074 110.197 27.0648C109.74 28.5968 109.627 28.5144 112.191 28.5144H114.443L114.543 28.0161C114.858 26.4482 116.513 25.6545 118.001 26.3573C118.776 26.7236 118.99 27.1288 119.054 28.3528L119.109 29.403L117.161 29.4964C116.09 29.5478 114.812 29.6854 114.321 29.8023C111.726 30.4198 109.981 31.7968 109.554 33.5634L109.447 34.0077H107.191H104.934L104.75 34.5651C104.332 35.8234 102.493 36.666 101.023 36.2721C99.7154 35.9213 98.9918 34.9217 98.6507 32.9939L98.5428 32.3841L104.12 32.3967L109.696 32.4093L109.802 31.7947C109.972 30.8011 109.681 28.6798 109.218 27.5403C108.395 25.5115 106.868 23.9945 104.968 23.3159C103.63 22.8385 101.143 22.7582 99.7032 23.1458ZM136.517 23.1107C132.07 24.1839 129.591 28.9351 130.874 33.9276C131.551 36.5621 133.121 38.2859 135.674 39.1957C136.957 39.6531 139.759 39.6954 141.159 39.2787C143.644 38.5396 145.648 36.5991 146.064 34.5289L146.168 34.0077H143.889H141.609L141.43 34.5466C141.06 35.6652 139.999 36.296 138.484 36.2997C137.411 36.3023 136.731 35.9952 136.161 35.251C135.732 34.6915 135.164 32.8315 135.336 32.5534C135.4 32.4512 137.449 32.392 140.933 32.392H146.429L146.53 31.5438C146.673 30.3487 146.251 28.1895 145.629 26.931C145.025 25.7094 143.583 24.2 142.545 23.7022C140.825 22.8773 138.449 22.6443 136.517 23.1107ZM154.271 23.1014C153.3 23.5277 152.805 23.9869 152.269 24.9584C151.978 25.4851 151.701 25.8766 151.652 25.8286C151.604 25.7807 151.56 25.4019 151.554 24.987C151.549 24.5723 151.531 24.004 151.514 23.7245L151.483 23.2162L149.404 23.1926C148.261 23.1797 147.209 23.2135 147.067 23.2679C146.836 23.3563 146.808 24.1882 146.799 31.1901L146.79 39.0134L147.149 39.102C147.346 39.1508 148.42 39.1695 149.536 39.1438L151.564 39.0971L151.645 34.4924C151.722 30.1202 151.745 29.847 152.099 29.0818C152.305 28.6386 152.633 28.1029 152.83 27.8911C153.358 27.3219 154.503 26.8863 155.748 26.7819L156.848 26.6895L156.802 24.8148L156.757 22.9403L155.783 22.9026C155.202 22.8802 154.593 22.9601 154.271 23.1014ZM53.5951 26.6843C54.9589 27.5237 55.57 29.4925 55.2492 32.0128C54.9748 34.1677 54.0858 35.3806 52.4689 35.8063C50.6752 36.2786 48.83 35.2219 48.1742 33.3469C47.749 32.1309 47.7568 29.7223 48.1894 28.5496C48.5651 27.5319 49.4794 26.5706 50.3333 26.2956C51.3146 25.9795 52.723 26.1474 53.5951 26.6843ZM69.8736 26.2741C70.6524 26.5328 71.3973 27.2881 71.8252 28.253C72.3291 29.3893 72.4474 32.0915 72.0534 33.4629C71.5016 35.3827 70.4268 36.302 68.7343 36.302C67.6155 36.302 66.9872 36.0139 66.3029 35.1875C65.5546 34.2835 65.2512 33.0926 65.2616 31.0995C65.271 29.2646 65.4905 28.4139 66.2284 27.3522C66.9788 26.2723 68.5074 25.8202 69.8736 26.2741ZM87.0976 26.6727C88.4906 27.6474 88.9583 29.0366 88.7938 31.7107C88.667 33.7694 88.4415 34.4139 87.5269 35.3298C86.6759 36.1821 86.1454 36.3479 84.6214 36.2382C83.4 36.1503 82.6373 35.5819 81.9469 34.2451C81.4788 33.3388 81.4601 33.2214 81.4616 31.1913C81.463 29.2203 81.4916 29.0261 81.8927 28.272C82.7286 26.7001 83.8261 26.0476 85.4773 26.14C86.1972 26.1804 86.5686 26.3025 87.0976 26.6727ZM103.521 26.5702C104.118 26.9375 104.703 27.9604 104.857 28.9051L104.952 29.4838L102.05 29.4814C100.454 29.4799 99.0588 29.4222 98.9494 29.3529C98.7985 29.2576 98.7922 29.0763 98.9236 28.6028C99.3798 26.9575 100.611 26.0107 102.113 26.1502C102.583 26.1939 103.217 26.383 103.521 26.5702ZM139.967 26.4544C140.786 26.8654 141.34 27.7046 141.516 28.8018L141.626 29.4838L138.724 29.4814C137.129 29.4799 135.722 29.415 135.598 29.3368C135.408 29.2172 135.418 29.0687 135.661 28.3976C136.049 27.3228 136.664 26.6124 137.446 26.3352C138.381 26.0036 139.141 26.0396 139.967 26.4544ZM28.4104 32.6365C28.5607 33.233 28.3323 34.4974 27.9672 35.0902C27.5807 35.7176 26.7821 36.2296 26.1234 36.2723C24.9065 36.3513 24.5537 36.2666 24.063 35.778C23.6041 35.3211 23.5745 35.2217 23.6448 34.3769C23.7084 33.6143 23.7967 33.407 24.1918 33.0923C24.9028 32.5258 25.8333 32.2573 27.1346 32.2432C28.257 32.231 28.3124 32.2481 28.4104 32.6365ZM119.093 32.6315C119.233 33.1876 119.04 34.2952 118.678 35.0154C118.281 35.8031 117.319 36.3025 116.215 36.2941C115.218 36.2863 114.645 35.911 114.366 35.0828C113.819 33.4579 115.288 32.2531 117.833 32.2376C118.935 32.2308 118.997 32.2505 119.093 32.6315ZM146.165 44.0553C146.265 44.3549 146.615 44.4045 146.615 44.1192C146.615 43.9784 146.499 43.8634 146.358 43.8634C146.216 43.8634 146.13 43.9497 146.165 44.0553ZM148.882 45.2678C148.661 45.4182 148.427 45.618 148.362 45.7121C148.295 45.8074 148.241 45.7222 148.24 45.5195C148.239 45.3195 148.164 45.1559 148.075 45.1559C147.974 45.1559 147.913 46.0446 147.913 47.4987C147.913 48.9528 147.974 49.8414 148.075 49.8414C148.171 49.8414 148.238 49.2619 148.238 48.4277C148.239 46.7527 148.444 45.9024 148.929 45.5646C149.421 45.2214 150.392 45.2524 150.856 45.626C151.214 45.9144 151.243 46.0625 151.294 47.8879C151.323 48.9623 151.415 49.8414 151.497 49.8414C151.578 49.8414 151.645 49.0381 151.645 48.0561C151.645 45.592 151.306 44.9944 149.907 44.9944C149.564 44.9944 149.103 45.1173 148.882 45.2678ZM153.641 45.3111C152.936 45.739 152.619 46.4173 152.619 47.4987C152.619 48.5138 152.894 49.167 153.53 49.6656C154.312 50.278 155.822 50.0142 156.423 49.1601C156.716 48.7428 156.744 48.5489 156.51 48.5489C156.419 48.5489 156.265 48.7226 156.168 48.935C155.803 49.7311 154.243 49.9658 153.632 49.3163C152.937 48.5785 152.749 47.3853 153.17 46.3837C153.475 45.6565 154.01 45.3175 154.853 45.3175C155.404 45.3175 155.641 45.4096 155.953 45.745C156.172 45.9801 156.351 46.2709 156.351 46.3913C156.351 46.5117 156.424 46.6101 156.514 46.6101C156.851 46.6101 156.655 46.0724 156.124 45.5437C155.665 45.087 155.453 44.9945 154.866 44.995C154.453 44.9953 153.945 45.1262 153.641 45.3111ZM146.128 47.4987C146.128 49.4293 146.169 49.8414 146.361 49.8414C146.552 49.8414 146.594 49.4739 146.593 47.8351C146.591 45.7638 146.518 45.1559 146.271 45.1559C146.192 45.1559 146.128 46.2102 146.128 47.4987Z" fill="#609C47"/>
</svg>
