<svg width="31" height="33" viewBox="0 0 31 33" fill="none" xmlns="http://www.w3.org/2000/svg">
<path d="M0.893127 2.18568V30.2567C0.893316 30.3176 0.91148 30.3771 0.945343 30.4278C0.979206 30.4784 1.02726 30.5179 1.08348 30.5413C1.1397 30.5647 1.20158 30.571 1.26137 30.5594C1.32115 30.5478 1.37618 30.5188 1.41955 30.476L16.0358 16.2219L1.41955 1.9664C1.37618 1.92364 1.32115 1.89464 1.26137 1.88303C1.20158 1.87142 1.1397 1.87772 1.08348 1.90114C1.02726 1.92455 0.979206 1.96405 0.945343 2.01467C0.91148 2.06529 0.893316 2.12478 0.893127 2.18568ZM22.1643 10.3649L3.83737 0.26785L3.82595 0.261422C3.51024 0.0899957 3.21024 0.517133 3.46881 0.765701L17.835 14.5027L22.1643 10.3649ZM3.47024 31.6781C3.21024 31.9267 3.51024 32.3539 3.82737 32.1824L3.8388 32.176L22.1643 22.079L17.835 17.9398L3.47024 31.6781ZM29.5627 14.4362L24.445 11.6177L19.6329 16.2219L24.445 20.824L29.5627 18.0076C30.9549 17.2383 30.9549 15.2055 29.5627 14.4362Z" fill="#FCFDFC"/>
</svg>
