<svg width="32" height="33" viewBox="0 0 32 33" fill="none" xmlns="http://www.w3.org/2000/svg">
<path d="M23.3 12.4201V17.5701C23.3 20.6501 21.54 21.9701 18.9 21.9701H10.11C9.65995 21.9701 9.22996 21.9301 8.82996 21.8401C8.57996 21.8001 8.33996 21.7301 8.11996 21.6501C6.61996 21.0901 5.70996 19.7901 5.70996 17.5701V12.4201C5.70996 9.3401 7.46995 8.02014 10.11 8.02014H18.9C21.14 8.02014 22.75 8.97013 23.18 11.1401C23.25 11.5401 23.3 11.9501 23.3 12.4201Z" stroke="#609C47" stroke-width="1.5" stroke-miterlimit="10" stroke-linecap="round" stroke-linejoin="round"/>
<path d="M26.3011 15.4202V20.5702C26.3011 23.6502 24.5411 24.9702 21.9011 24.9702H13.1111C12.3711 24.9702 11.7011 24.8702 11.1211 24.6502C9.93106 24.2102 9.12105 23.3002 8.83105 21.8402C9.23105 21.9302 9.66105 21.9702 10.1111 21.9702H18.9011C21.5411 21.9702 23.3011 20.6502 23.3011 17.5702V12.4202C23.3011 11.9502 23.2611 11.5303 23.1811 11.1403C25.0811 11.5403 26.3011 12.8802 26.3011 15.4202Z" stroke="#609C47" stroke-width="1.5" stroke-miterlimit="10" stroke-linecap="round" stroke-linejoin="round"/>
<path d="M14.4984 17.64C15.9564 17.64 17.1384 16.458 17.1384 15C17.1384 13.542 15.9564 12.36 14.4984 12.36C13.0404 12.36 11.8584 13.542 11.8584 15C11.8584 16.458 13.0404 17.64 14.4984 17.64Z" stroke="#609C47" stroke-width="1.5" stroke-miterlimit="10" stroke-linecap="round" stroke-linejoin="round"/>
<path d="M8.78027 12.8002V17.2002" stroke="#609C47" stroke-width="1.5" stroke-miterlimit="10" stroke-linecap="round" stroke-linejoin="round"/>
<path d="M20.2217 12.8004V17.2004" stroke="#609C47" stroke-width="1.5" stroke-miterlimit="10" stroke-linecap="round" stroke-linejoin="round"/>
</svg>
