<svg width="48" height="48" viewBox="0 0 48 48" fill="none" xmlns="http://www.w3.org/2000/svg">
<rect width="48" height="48" rx="24" fill="#EFF5ED"/>
<path d="M16.76 29.5841L16.7371 29.5789L16.7139 29.5759C16.5372 29.5528 16.2974 29.487 16.0265 29.3842L16.0252 29.3837C15.4251 29.1581 14.7893 28.7751 14.3019 28.1186C13.8171 27.4657 13.4492 26.5023 13.4492 25.0617V19.9117C13.4492 18.3715 13.8903 17.2253 14.6515 16.464C15.4128 15.7027 16.559 15.2617 18.0992 15.2617H26.8892C28.1916 15.2617 29.2137 15.5729 29.9565 16.1234C30.6937 16.6698 31.1998 17.4843 31.4189 18.5797L31.4193 18.5819C31.5011 18.9817 31.5392 19.4171 31.5392 19.9117V25.0617C31.5392 26.6133 31.0998 27.7616 30.3404 28.5221C29.581 29.2826 28.4354 29.7217 26.8892 29.7217H18.0992C17.6102 29.7217 17.158 29.6746 16.76 29.5841ZM16.2017 28.9291L16.2016 28.9293L16.214 28.9336C16.4331 29.0103 16.6474 29.0676 16.8564 29.1031C17.2664 29.1888 17.6679 29.2317 18.1092 29.2317H26.8992C28.2021 29.2317 29.2664 28.9167 30.0003 28.1828C30.7342 27.4489 31.0492 26.3846 31.0492 25.0817V19.9317C31.0492 19.4891 31.0177 19.0841 30.9392 18.7021C30.7495 17.7553 30.3181 17.0022 29.6047 16.4964C28.9019 15.998 27.9846 15.7817 26.8992 15.7817H18.1092C16.8063 15.7817 15.742 16.0968 15.0081 16.8307C14.2742 17.5646 13.9592 18.6288 13.9592 19.9317V25.0817C13.9592 26.0309 14.1256 26.8472 14.5009 27.5065C14.8821 28.1762 15.4578 28.6465 16.2017 28.9291Z" stroke="#609C47"/>
<path d="M19.0205 32.3836L19.0206 32.3836L19.0163 32.382C17.7204 31.8972 16.8703 30.8859 16.5715 29.3828L16.5713 29.3822C16.5538 29.2944 16.5845 29.2109 16.6344 29.1638L16.6396 29.1589L16.6446 29.1539C16.6974 29.101 16.7777 29.0757 16.8644 29.0965L16.8643 29.0967L16.8773 29.0994C17.2441 29.1772 17.6491 29.2203 18.1011 29.2203H26.8911C28.194 29.2203 29.2582 28.9053 29.9921 28.1714C30.7261 27.4375 31.0411 26.3733 31.0411 25.0704V19.9203C31.0411 19.4778 31.0096 19.0728 30.9311 18.6909C30.9157 18.6116 30.9385 18.5268 30.9998 18.4589C31.0651 18.3964 31.1381 18.3806 31.2044 18.3965L31.2127 18.3985L31.2211 18.4002C32.3173 18.624 33.1327 19.1328 33.6796 19.8696C34.2303 20.6115 34.5411 21.6288 34.5411 22.9203V28.0704C34.5411 29.6166 34.102 30.7624 33.3426 31.5218C32.5831 32.2812 31.4374 32.7203 29.8911 32.7203H21.1011C20.2961 32.7203 19.5998 32.6064 19.0205 32.3836ZM17.9211 29.7203H17.0742L17.4833 30.4618C17.8633 31.1506 18.4393 31.6394 19.2078 31.9194C19.7581 32.1254 20.4001 32.2203 21.111 32.2203H29.9011C31.204 32.2203 32.2682 31.9053 33.0021 31.1714C33.736 30.4375 34.051 29.3733 34.051 28.0704V22.9203C34.051 21.2379 33.5211 19.9716 32.2901 19.3012L31.551 18.8987V19.7403V19.7407V19.741V19.7414V19.7417V19.7421V19.7424V19.7428V19.7432V19.7435V19.7439V19.7442V19.7446V19.7449V19.7453V19.7456V19.746V19.7463V19.7467V19.747V19.7474V19.7477V19.7481V19.7484V19.7488V19.7491V19.7495V19.7498V19.7502V19.7505V19.7509V19.7512V19.7516V19.7519V19.7523V19.7526V19.753V19.7533V19.7537V19.754V19.7544V19.7548V19.7551V19.7555V19.7558V19.7562V19.7565V19.7569V19.7572V19.7576V19.7579V19.7583V19.7586V19.759V19.7593V19.7597V19.76V19.7604V19.7607V19.7611V19.7614V19.7618V19.7621V19.7625V19.7628V19.7632V19.7635V19.7639V19.7642V19.7646V19.7649V19.7653V19.7657V19.766V19.7664V19.7667V19.7671V19.7674V19.7678V19.7681V19.7685V19.7688V19.7692V19.7695V19.7699V19.7702V19.7706V19.7709V19.7713V19.7716V19.772V19.7723V19.7727V19.773V19.7734V19.7737V19.7741V19.7744V19.7748V19.7751V19.7755V19.7758V19.7762V19.7765V19.7769V19.7773V19.7776V19.778V19.7783V19.7787V19.779V19.7794V19.7797V19.7801V19.7804V19.7808V19.7811V19.7815V19.7818V19.7822V19.7825V19.7829V19.7832V19.7836V19.7839V19.7843V19.7846V19.785V19.7853V19.7857V19.786V19.7864V19.7867V19.7871V19.7874V19.7878V19.7881V19.7885V19.7889V19.7892V19.7896V19.7899V19.7903V19.7906V19.791V19.7913V19.7917V19.792V19.7924V19.7927V19.7931V19.7934V19.7938V19.7941V19.7945V19.7948V19.7952V19.7955V19.7959V19.7962V19.7966V19.7969V19.7973V19.7976V19.798V19.7983V19.7987V19.799V19.7994V19.7998V19.8001V19.8005V19.8008V19.8012V19.8015V19.8019V19.8022V19.8026V19.8029V19.8033V19.8036V19.804V19.8043V19.8047V19.805V19.8054V19.8057V19.8061V19.8064V19.8068V19.8071V19.8075V19.8078V19.8082V19.8085V19.8089V19.8092V19.8096V19.8099V19.8103V19.8106V19.811V19.8114V19.8117V19.8121V19.8124V19.8128V19.8131V19.8135V19.8138V19.8142V19.8145V19.8149V19.8152V19.8156V19.8159V19.8163V19.8166V19.817V19.8173V19.8177V19.818V19.8184V19.8187V19.8191V19.8194V19.8198V19.8201V19.8205V19.8208V19.8212V19.8215V19.8219V19.8222V19.8226V19.823V19.8233V19.8237V19.824V19.8244V19.8247V19.8251V19.8254V19.8258V19.8261V19.8265V19.8268V19.8272V19.8275V19.8279V19.8282V19.8286V19.8289V19.8293V19.8296V19.83V19.8303V19.8307V19.831V19.8314V19.8317V19.8321V19.8324V19.8328V19.8331V19.8335V19.8338V19.8342V19.8346V19.8349V19.8353V19.8356V19.836V19.8363V19.8367V19.837V19.8374V19.8377V19.8381V19.8384V19.8388V19.8391V19.8395V19.8398V19.8402V19.8405V19.8409V19.8412V19.8416V19.8419V19.8423V19.8426V19.843V19.8433V19.8437V19.844V19.8444V19.8447V19.8451V19.8454V19.8458V19.8462V19.8465V19.8469V19.8472V19.8476V19.8479V19.8483V19.8486V19.849V19.8493V19.8497V19.85V19.8504V19.8507V19.8511V19.8514V19.8518V19.8521V19.8525V19.8528V19.8532V19.8535V19.8539V19.8542V19.8546V19.8549V19.8553V19.8556V19.856V19.8563V19.8567V19.8571V19.8574V19.8578V19.8581V19.8585V19.8588V19.8592V19.8595V19.8599V19.8602V19.8606V19.8609V19.8613V19.8616V19.862V19.8623V19.8627V19.863V19.8634V19.8637V19.8641V19.8644V19.8648V19.8651V19.8655V19.8658V19.8662V19.8665V19.8669V19.8672V19.8676V19.8679V19.8683V19.8687V19.869V19.8694V19.8697V19.8701V19.8704V19.8708V19.8711V19.8715V19.8718V19.8722V19.8725V19.8729V19.8732V19.8736V19.8739V19.8743V19.8746V19.875V19.8753V19.8757V19.876V19.8764V19.8767V19.8771V19.8774V19.8778V19.8781V19.8785V19.8788V19.8792V19.8795V19.8799V19.8803V19.8806V19.881V19.8813V19.8817V19.882V19.8824V19.8827V19.8831V19.8834V19.8838V19.8841V19.8845V19.8848V19.8852V19.8855V19.8859V19.8862V19.8866V19.8869V19.8873V19.8876V19.888V19.8883V19.8887V19.889V19.8894V19.8897V19.8901V19.8904V19.8908V19.8911V19.8915V19.8919V19.8922V19.8926V19.8929V19.8933V19.8936V19.894V19.8943V19.8947V19.895V19.8954V19.8957V19.8961V19.8964V19.8968V19.8971V19.8975V19.8978V19.8982V19.8985V19.8989V19.8992V19.8996V19.8999V19.9003V19.9006V19.901V19.9013V19.9017V19.902V19.9024V19.9028V19.9031V19.9035V19.9038V19.9042V19.9045V19.9049V19.9052V19.9056V19.9059V19.9063V19.9066V19.907V19.9073V19.9077V19.908V19.9084V19.9087V19.9091V19.9094V19.9098V19.9101V19.9105V19.9108V19.9112V19.9115V19.9119V19.9122V19.9126V19.9129V19.9133V19.9136V19.914V19.9144V19.9147V19.9151V19.9154V19.9158V19.9161V19.9165V19.9168V19.9172V19.9175V19.9179V19.9182V19.9186V19.9189V19.9193V19.9196V19.92V19.9203V25.0704C31.551 26.6106 31.11 27.7568 30.3487 28.518C29.5875 29.2793 28.4413 29.7203 26.9011 29.7203H18.111H18.1106H18.1102H18.1098H18.1094H18.109H18.1086H18.1082H18.1078H18.1074H18.107H18.1066H18.1061H18.1057H18.1053H18.1049H18.1045H18.1041H18.1037H18.1033H18.1029H18.1025H18.1021H18.1017H18.1013H18.1009H18.1005H18.1001H18.0997H18.0992H18.0988H18.0984H18.098H18.0976H18.0972H18.0968H18.0964H18.096H18.0956H18.0952H18.0948H18.0944H18.094H18.0936H18.0932H18.0928H18.0924H18.092H18.0916H18.0912H18.0908H18.0904H18.09H18.0896H18.0892H18.0888H18.0884H18.088H18.0876H18.0872H18.0868H18.0864H18.086H18.0856H18.0852H18.0849H18.0845H18.0841H18.0837H18.0833H18.0829H18.0825H18.0821H18.0817H18.0813H18.0809H18.0805H18.0801H18.0797H18.0793H18.0789H18.0785H18.0781H18.0778H18.0774H18.077H18.0766H18.0762H18.0758H18.0754H18.075H18.0746H18.0742H18.0738H18.0734H18.0731H18.0727H18.0723H18.0719H18.0715H18.0711H18.0707H18.0703H18.0699H18.0695H18.0692H18.0688H18.0684H18.068H18.0676H18.0672H18.0668H18.0664H18.0661H18.0657H18.0653H18.0649H18.0645H18.0641H18.0637H18.0634H18.063H18.0626H18.0622H18.0618H18.0614H18.061H18.0607H18.0603H18.0599H18.0595H18.0591H18.0587H18.0583H18.058H18.0576H18.0572H18.0568H18.0564H18.0561H18.0557H18.0553H18.0549H18.0545H18.0541H18.0538H18.0534H18.053H18.0526H18.0522H18.0519H18.0515H18.0511H18.0507H18.0503H18.05H18.0496H18.0492H18.0488H18.0484H18.0481H18.0477H18.0473H18.0469H18.0465H18.0462H18.0458H18.0454H18.045H18.0446H18.0443H18.0439H18.0435H18.0431H18.0428H18.0424H18.042H18.0416H18.0413H18.0409H18.0405H18.0401H18.0397H18.0394H18.039H18.0386H18.0382H18.0379H18.0375H18.0371H18.0367H18.0364H18.036H18.0356H18.0352H18.0349H18.0345H18.0341H18.0338H18.0334H18.033H18.0326H18.0323H18.0319H18.0315H18.0311H18.0308H18.0304H18.03H18.0297H18.0293H18.0289H18.0285H18.0282H18.0278H18.0274H18.0271H18.0267H18.0263H18.0259H18.0256H18.0252H18.0248H18.0245H18.0241H18.0237H18.0233H18.023H18.0226H18.0222H18.0219H18.0215H18.0211H18.0208H18.0204H18.02H18.0197H18.0193H18.0189H18.0185H18.0182H18.0178H18.0174H18.0171H18.0167H18.0163H18.016H18.0156H18.0152H18.0149H18.0145H18.0141H18.0138H18.0134H18.013H18.0127H18.0123H18.0119H18.0116H18.0112H18.0108H18.0105H18.0101H18.0097H18.0094H18.009H18.0087H18.0083H18.0079H18.0076H18.0072H18.0068H18.0065H18.0061H18.0057H18.0054H18.005H18.0046H18.0043H18.0039H18.0036H18.0032H18.0028H18.0025H18.0021H18.0017H18.0014H18.001H18.0006H18.0003H17.9999H17.9996H17.9992H17.9988H17.9985H17.9981H17.9977H17.9974H17.997H17.9967H17.9963H17.9959H17.9956H17.9952H17.9949H17.9945H17.9941H17.9938H17.9934H17.9931H17.9927H17.9923H17.992H17.9916H17.9912H17.9909H17.9905H17.9902H17.9898H17.9894H17.9891H17.9887H17.9884H17.988H17.9877H17.9873H17.9869H17.9866H17.9862H17.9859H17.9855H17.9851H17.9848H17.9844H17.9841H17.9837H17.9833H17.983H17.9826H17.9823H17.9819H17.9816H17.9812H17.9808H17.9805H17.9801H17.9798H17.9794H17.979H17.9787H17.9783H17.978H17.9776H17.9773H17.9769H17.9765H17.9762H17.9758H17.9755H17.9751H17.9748H17.9744H17.974H17.9737H17.9733H17.973H17.9726H17.9723H17.9719H17.9716H17.9712H17.9708H17.9705H17.9701H17.9698H17.9694H17.9691H17.9687H17.9684H17.968H17.9676H17.9673H17.9669H17.9666H17.9662H17.9659H17.9655H17.9652H17.9648H17.9644H17.9641H17.9637H17.9634H17.963H17.9627H17.9623H17.962H17.9616H17.9613H17.9609H17.9605H17.9602H17.9598H17.9595H17.9591H17.9588H17.9584H17.9581H17.9577H17.9574H17.957H17.9567H17.9563H17.9559H17.9556H17.9552H17.9549H17.9545H17.9542H17.9538H17.9535H17.9531H17.9528H17.9524H17.9521H17.9517H17.9513H17.951H17.9506H17.9503H17.9499H17.9496H17.9492H17.9489H17.9485H17.9482H17.9478H17.9475H17.9471H17.9468H17.9464H17.9461H17.9457H17.9453H17.945H17.9446H17.9443H17.9439H17.9436H17.9432H17.9429H17.9425H17.9422H17.9418H17.9415H17.9411H17.9408H17.9404H17.9401H17.9397H17.9394H17.939H17.9387H17.9383H17.938H17.9376H17.9372H17.9369H17.9365H17.9362H17.9358H17.9355H17.9351H17.9348H17.9344H17.9341H17.9337H17.9334H17.933H17.9327H17.9323H17.932H17.9316H17.9313H17.9309H17.9306H17.9302H17.9299H17.9295H17.9292H17.9288H17.9285H17.9281H17.9277H17.9274H17.927H17.9267H17.9263H17.926H17.9256H17.9253H17.9249H17.9246H17.9242H17.9239H17.9235H17.9232H17.9228H17.9225H17.9221H17.9218H17.9214H17.9211Z" fill="#609C47" stroke="#609C47"/>
<path d="M22.4994 25.3894C20.9055 25.3894 19.6094 24.0933 19.6094 22.4994C19.6094 20.9055 20.9055 19.6094 22.4994 19.6094C24.0932 19.6094 25.3894 20.9055 25.3894 22.4994C25.3894 24.0933 24.0933 25.3894 22.4994 25.3894ZM22.4994 20.1094C21.1832 20.1094 20.1094 21.1833 20.1094 22.4994C20.1094 23.8156 21.1832 24.8894 22.4994 24.8894C23.8155 24.8894 24.8894 23.8155 24.8894 22.4994C24.8894 21.1833 23.8155 20.1094 22.4994 20.1094Z" fill="#609C47" stroke="#609C47"/>
<path d="M16.7812 24.9508C16.6474 24.9508 16.5312 24.8347 16.5312 24.7008V20.3008C16.5312 20.1669 16.6474 20.0508 16.7812 20.0508C16.9151 20.0508 17.0312 20.1669 17.0312 20.3008V24.7008C17.0312 24.839 16.9208 24.9508 16.7812 24.9508Z" fill="#609C47" stroke="#609C47"/>
<path d="M28.2109 25.4508C27.8009 25.4508 27.4609 25.1108 27.4609 24.7008V20.3008C27.4609 19.8908 27.8009 19.5508 28.2109 19.5508C28.6209 19.5508 28.9609 19.8908 28.9609 20.3008V24.7008C28.9609 25.1108 28.6309 25.4508 28.2109 25.4508Z" fill="#609C47"/>
</svg>
