<svg width="24" height="25" viewBox="0 0 24 25" fill="none" xmlns="http://www.w3.org/2000/svg">
<path d="M19.3 8.41998V13.57C19.3 16.65 17.54 17.97 14.9 17.97H6.10995C5.65995 17.97 5.22996 17.93 4.82996 17.84C4.57996 17.8 4.33996 17.73 4.11996 17.65C2.61996 17.09 1.70996 15.79 1.70996 13.57V8.41998C1.70996 5.33998 3.46995 4.02002 6.10995 4.02002H14.9C17.14 4.02002 18.75 4.97001 19.18 7.14001C19.25 7.54001 19.3 7.94998 19.3 8.41998Z" stroke="#609C47" stroke-width="1.5" stroke-miterlimit="10" stroke-linecap="round" stroke-linejoin="round"/>
<path d="M22.3011 11.4201V16.5701C22.3011 19.6501 20.5411 20.9701 17.9011 20.9701H9.11105C8.37105 20.9701 7.70106 20.8701 7.12106 20.6501C5.93106 20.2101 5.12105 19.3001 4.83105 17.8401C5.23105 17.9301 5.66105 17.9701 6.11105 17.9701H14.9011C17.5411 17.9701 19.3011 16.6501 19.3011 13.5701V8.4201C19.3011 7.9501 19.2611 7.53014 19.1811 7.14014C21.0811 7.54014 22.3011 8.88011 22.3011 11.4201Z" stroke="#609C47" stroke-width="1.5" stroke-miterlimit="10" stroke-linecap="round" stroke-linejoin="round"/>
<path d="M10.4984 13.6399C11.9564 13.6399 13.1384 12.4579 13.1384 10.9999C13.1384 9.54185 11.9564 8.35986 10.4984 8.35986C9.04038 8.35986 7.8584 9.54185 7.8584 10.9999C7.8584 12.4579 9.04038 13.6399 10.4984 13.6399Z" stroke="#609C47" stroke-width="1.5" stroke-miterlimit="10" stroke-linecap="round" stroke-linejoin="round"/>
<path d="M4.78027 8.80005V13.2001" stroke="#609C47" stroke-width="1.5" stroke-miterlimit="10" stroke-linecap="round" stroke-linejoin="round"/>
<path d="M16.2217 8.80029V13.2003" stroke="#609C47" stroke-width="1.5" stroke-miterlimit="10" stroke-linecap="round" stroke-linejoin="round"/>
</svg>
