<svg width="48" height="48" viewBox="0 0 48 48" fill="none" xmlns="http://www.w3.org/2000/svg">
<rect width="48" height="48" rx="24" fill="#EFF5ED"/>
<path d="M30.4699 28.83L30.8599 31.99C30.9599 32.82 30.0699 33.4 29.3599 32.97L25.1699 30.48C24.7099 30.48 24.2599 30.45 23.8199 30.39C24.5599 29.52 24.9999 28.42 24.9999 27.23C24.9999 24.39 22.5399 22.09 19.4998 22.09C18.3398 22.09 17.2698 22.42 16.3798 23C16.3498 22.75 16.3398 22.5 16.3398 22.24C16.3398 17.69 20.2898 14 25.1699 14C30.0499 14 33.9999 17.69 33.9999 22.24C33.9999 24.94 32.6099 27.33 30.4699 28.83Z" stroke="#609C47" stroke-width="1.5" stroke-linecap="round" stroke-linejoin="round"/>
<path d="M25 27.23C25 28.42 24.56 29.5201 23.82 30.3901C22.83 31.5901 21.26 32.36 19.5 32.36L16.89 33.91C16.45 34.18 15.89 33.81 15.95 33.3L16.2 31.3301C14.86 30.4001 14 28.91 14 27.23C14 25.47 14.94 23.9201 16.38 23.0001C17.27 22.4201 18.34 22.0901 19.5 22.0901C22.54 22.0901 25 24.39 25 27.23Z" stroke="#609C47" stroke-width="1.5" stroke-linecap="round" stroke-linejoin="round"/>
</svg>
