<svg width="48" height="48" viewBox="0 0 48 48" fill="none" xmlns="http://www.w3.org/2000/svg">
<rect width="48" height="48" rx="24" fill="#EFF5ED"/>
<path d="M17.7488 15.2657L17.8515 15.63H18.23H30.72C31.593 15.63 32.3899 15.9736 32.974 16.5907C33.5505 17.2201 33.8403 18.033 33.7715 18.9005L33.7713 18.9041L33.2313 26.4041L33.2313 26.4041L33.2309 26.41C33.1371 27.9712 31.7603 29.25 30.19 29.25H19.54C18.6909 29.25 17.8743 28.8894 17.2984 28.2619C16.7219 27.6339 16.4298 26.791 16.4983 25.9409C16.4983 25.9407 16.4984 25.9405 16.4984 25.9403L17.328 15.9845C17.3715 15.5238 17.206 15.0879 16.9092 14.7629C16.5989 14.423 16.1719 14.25 15.73 14.25H14C13.8661 14.25 13.75 14.1339 13.75 14C13.75 13.8661 13.8661 13.75 14 13.75H15.74C16.3265 13.75 16.8833 13.9986 17.2806 14.427C17.5016 14.6733 17.6613 14.9554 17.7488 15.2657ZM17.78 16.5993L17.0018 25.9771C17.0018 25.9774 17.0018 25.9776 17.0018 25.9779C16.9399 26.6987 17.1781 27.385 17.6596 27.9159C18.148 28.4544 18.8244 28.74 19.54 28.74H30.19C31.4948 28.74 32.6488 27.6553 32.7485 26.3583L32.7487 26.3559L33.2887 18.8559L33.2889 18.8538C33.3375 18.136 33.1067 17.4365 32.6144 16.9176C32.1263 16.3932 31.4525 16.11 30.73 16.11H18.28H17.78V16.5993Z" stroke="#609C47"/>
<path d="M28.25 34.25C27.4261 34.25 26.75 33.5739 26.75 32.75C26.75 31.9261 27.4261 31.25 28.25 31.25C29.0739 31.25 29.75 31.9261 29.75 32.75C29.75 33.5739 29.0739 34.25 28.25 34.25ZM28.25 31.75C27.6939 31.75 27.25 32.1939 27.25 32.75C27.25 33.3061 27.6939 33.75 28.25 33.75C28.8061 33.75 29.25 33.3061 29.25 32.75C29.25 32.1939 28.8061 31.75 28.25 31.75Z" fill="#609C47" stroke="#609C47"/>
<path d="M20.25 34.75C19.15 34.75 18.25 33.85 18.25 32.75C18.25 31.65 19.15 30.75 20.25 30.75C21.35 30.75 22.25 31.65 22.25 32.75C22.25 33.85 21.35 34.75 20.25 34.75ZM20.25 32.25C19.97 32.25 19.75 32.47 19.75 32.75C19.75 33.03 19.97 33.25 20.25 33.25C20.53 33.25 20.75 33.03 20.75 32.75C20.75 32.47 20.53 32.25 20.25 32.25Z" fill="#609C47"/>
<path d="M33 20.75H21C20.59 20.75 20.25 20.41 20.25 20C20.25 19.59 20.59 19.25 21 19.25H33C33.41 19.25 33.75 19.59 33.75 20C33.75 20.41 33.41 20.75 33 20.75Z" fill="#609C47"/>
</svg>
