<svg width="48" height="48" viewBox="0 0 48 48" fill="none" xmlns="http://www.w3.org/2000/svg">
<rect width="48" height="48" rx="24" fill="#EFF5ED"/>
<path d="M15.7827 19.2339L15.7827 19.2339L21.1725 15.034C21.1726 15.0339 21.1726 15.0339 21.1727 15.0339C21.8201 14.5291 22.6736 14.2827 23.5054 14.2646C24.3374 14.2466 25.2026 14.4557 25.8769 14.9288L15.7827 19.2339ZM15.7827 19.2339L15.7804 19.2357C15.3487 19.5761 14.9724 20.1024 14.7052 20.6449C14.4383 21.1867 14.25 21.8065 14.25 22.3583V29.7683C14.25 31.9526 16.022 33.7383 18.21 33.7383H29.79C31.9761 33.7383 33.75 31.9644 33.75 29.7783V22.4983C33.75 21.9129 33.5446 21.26 33.2496 20.6945C32.9553 20.1304 32.5383 19.5887 32.0547 19.2572L25.8772 14.929L15.7827 19.2339ZM15.477 18.8429L15.4773 18.8427L20.867 14.6429C20.867 14.6429 20.8671 14.6428 20.8672 14.6428C22.3133 13.5182 24.6619 13.4634 26.1626 14.5174L26.1631 14.5178L32.3431 18.8478L32.344 18.8484C32.8581 19.2069 33.3396 19.7905 33.6931 20.4672C34.0465 21.144 34.25 21.8722 34.25 22.4983V29.7783C34.25 32.2328 32.2532 34.2383 29.79 34.2383H18.21C15.7475 34.2383 13.75 32.2335 13.75 29.7683V22.3583C13.75 21.7728 13.9335 21.0809 14.2538 20.4287C14.5741 19.7766 15.0107 19.2056 15.477 18.8429Z" stroke="#609C47"/>
<path d="M24.466 27.8779C24.4078 27.936 24.3423 27.9599 24.2639 27.9534C24.2003 27.9473 24.1332 27.9123 24.0836 27.8412L22.9959 26.2046L22.6578 25.696L22.226 26.1278L19.6759 28.6779L19.6759 28.6779C19.6246 28.7291 19.564 28.7514 19.4995 28.7514C19.4349 28.7514 19.3743 28.7291 19.323 28.6779C19.2283 28.5831 19.2283 28.4197 19.323 28.325C19.323 28.325 19.323 28.325 19.323 28.325L22.5231 25.125L22.5231 25.125C22.5812 25.0668 22.6467 25.0429 22.7252 25.0494C22.7887 25.0555 22.8559 25.0905 22.9054 25.1616L23.9931 26.7982L24.3312 27.3068L24.7631 26.875L28.3131 23.325C28.4078 23.2302 28.5712 23.2302 28.6659 23.325C28.7607 23.4197 28.7607 23.5831 28.6659 23.6779L24.466 27.8779Z" fill="#609C47" stroke="#609C47"/>
<path d="M28.5 26.25C28.09 26.25 27.75 25.91 27.75 25.5V24.25H26.5C26.09 24.25 25.75 23.91 25.75 23.5C25.75 23.09 26.09 22.75 26.5 22.75H28.5C28.91 22.75 29.25 23.09 29.25 23.5V25.5C29.25 25.91 28.91 26.25 28.5 26.25Z" fill="#609C47"/>
</svg>
