<svg width="48" height="48" viewBox="0 0 48 48" fill="none" xmlns="http://www.w3.org/2000/svg">
<rect width="48" height="48" rx="24" fill="#EFF5ED"/>
<path d="M15.816 23.1611L15.8162 23.161L15.8073 23.1503C15.7637 23.0973 15.7439 23.015 15.7589 22.9489L15.759 22.9489L15.7607 22.9405L16.8905 17.5416C16.8905 17.5414 16.8906 17.5412 16.8906 17.541C17.0706 16.6897 17.3268 15.9669 17.8295 15.4507C18.3154 14.9518 19.1006 14.5781 20.4913 14.5781H27.5213C28.9111 14.5781 29.6965 14.9538 30.1827 15.4541C30.6859 15.9718 30.942 16.6951 31.1221 17.5413C31.1221 17.5416 31.1222 17.5419 31.1222 17.5421L32.2519 22.9503L32.2518 22.9504L32.2537 22.9589C32.2665 23.0149 32.2556 23.0884 32.2058 23.1587C32.148 23.2186 32.0765 23.2481 32.0013 23.2481H16.0013C15.9207 23.2481 15.8583 23.2155 15.816 23.1611ZM16.4321 22.1448L16.3047 22.7481H16.9213H31.0713H31.6865L31.5607 22.1459L30.6207 17.6459L30.6203 17.6436C30.4825 16.9991 30.3099 16.3177 29.8283 15.8231C29.3243 15.3054 28.5779 15.0781 27.5113 15.0781H20.4913C19.4247 15.0781 18.6783 15.3054 18.1743 15.8231C17.6927 16.3177 17.5201 16.9991 17.3824 17.6436L17.3821 17.6449L16.4321 22.1448Z" stroke="#609C47"/>
<path d="M28.4259 33.0519L28.4267 33.0542C28.5293 33.3672 28.6279 33.6428 28.8398 33.8574C29.0317 34.0516 29.3753 34.25 30.0816 34.25H31.9615C32.6137 34.25 33.2389 33.9772 33.6724 33.5028L28.4259 33.0519ZM28.4259 33.0519L28.2259 32.4519L28.226 32.4519M28.4259 33.0519L28.226 32.4519M28.226 32.4519L28.2247 32.4482M28.226 32.4519L28.2247 32.4482M28.2247 32.4482L28.2158 32.4223C28.1573 32.2511 28.1002 32.0839 28.0368 31.9462C27.9674 31.7951 27.87 31.6313 27.7058 31.5021C27.5393 31.3711 27.3519 31.3128 27.1693 31.2837C26.9935 31.2557 26.7884 31.25 26.5616 31.25H21.4416C21.0038 31.25 20.5878 31.2795 20.2773 31.5354C20.1194 31.6655 20.023 31.8252 19.9538 31.9754C19.8894 32.1151 19.8347 32.2795 19.7812 32.4399L19.7772 32.4519L19.578 33.0496C19.5778 33.05 19.5777 33.0504 19.5776 33.0507C19.4683 33.3735 19.3705 33.6476 19.1596 33.8611C18.9697 34.0534 18.6292 34.25 17.9216 34.25H16.0416C15.3894 34.25 14.7642 33.9772 14.3307 33.5027C13.9066 33.0377 13.7022 32.4172 13.7594 31.7959L13.7595 31.7958M28.2247 32.4482L13.7595 31.7958M13.7595 31.7958L14.3195 25.7058L14.3195 25.7053M13.7595 31.7958L14.3195 25.7053M14.3195 25.7053C14.3938 24.8876 14.5347 24.1727 14.9607 23.6533C15.3638 23.1618 16.1075 22.75 17.6216 22.75H30.3815C31.8954 22.75 32.6364 23.1617 33.0383 23.6529C33.4635 24.1725 33.6042 24.8872 33.6838 25.7069C33.6838 25.7073 33.6839 25.7078 33.6839 25.7083L34.2437 31.7958L34.2437 31.7959M14.3195 25.7053L34.2437 31.7959M34.2437 31.7959C34.3009 32.4172 34.0965 33.0377 33.6725 33.5027L34.2437 31.7959ZM33.3085 33.1797L33.309 33.1791C33.646 32.814 33.8016 32.3448 33.7598 31.8573L33.7595 31.8542L33.1995 25.7642L33.1993 25.7621C33.1379 25.1246 33.0652 24.4327 32.6293 23.9454C32.17 23.432 31.4321 23.26 30.4016 23.26H17.6216C16.5871 23.26 15.846 23.4316 15.3864 23.9454C14.9493 24.4341 14.8803 25.1272 14.8236 25.765C14.8236 25.7652 14.8235 25.7655 14.8235 25.7657L14.2637 31.8542L14.2636 31.8542L14.2634 31.8573C14.2217 32.3432 14.3762 32.8111 14.711 33.1757C15.054 33.5594 15.5531 33.76 16.0516 33.76H17.9316H17.932C18.0584 33.76 18.1899 33.76 18.3017 33.7476C18.4194 33.7345 18.5752 33.7025 18.7207 33.5959C18.8656 33.4898 18.9427 33.3518 18.9901 33.2473C19.0322 33.1545 19.0708 33.0411 19.1074 32.9332C19.1099 32.9257 19.1124 32.9183 19.1149 32.911L19.115 32.911L19.1167 32.9058L19.3167 32.2958L19.3167 32.2958L19.3188 32.2891C19.4457 31.8832 19.5723 31.5236 19.8469 31.248C20.1021 30.992 20.5491 30.75 21.4416 30.75H26.5616C27.3992 30.75 27.826 30.9356 28.0835 31.1626C28.356 31.4028 28.5199 31.756 28.6982 32.2808L28.9072 32.8981C28.9073 32.8985 28.9074 32.8989 28.9076 32.8993C28.9099 32.9063 28.9122 32.9133 28.9145 32.9203C28.9513 33.0307 28.9896 33.1458 29.0315 33.2398C29.0783 33.3449 29.1545 33.4843 29.2988 33.592C29.4447 33.7009 29.6016 33.7338 29.7204 33.7473C29.8326 33.76 29.9644 33.76 30.0905 33.76H30.0916H31.9715C32.4776 33.76 32.9617 33.5542 33.3085 33.1797Z" fill="#609C47" stroke="#609C47"/>
<path d="M16 20.75H15C14.59 20.75 14.25 20.41 14.25 20C14.25 19.59 14.59 19.25 15 19.25H16C16.41 19.25 16.75 19.59 16.75 20C16.75 20.41 16.41 20.75 16 20.75Z" fill="#609C47"/>
<path d="M33 20.75H32C31.59 20.75 31.25 20.41 31.25 20C31.25 19.59 31.59 19.25 32 19.25H33C33.41 19.25 33.75 19.59 33.75 20C33.75 20.41 33.41 20.75 33 20.75Z" fill="#609C47"/>
<path d="M24 17.75C23.59 17.75 23.25 17.41 23.25 17V15C23.25 14.59 23.59 14.25 24 14.25C24.41 14.25 24.75 14.59 24.75 15V17C24.75 17.41 24.41 17.75 24 17.75Z" fill="#609C47"/>
<path d="M25.5 17.75H22.5C22.09 17.75 21.75 17.41 21.75 17C21.75 16.59 22.09 16.25 22.5 16.25H25.5C25.91 16.25 26.25 16.59 26.25 17C26.25 17.41 25.91 17.75 25.5 17.75Z" fill="#609C47"/>
<path d="M21 27.75H18C17.59 27.75 17.25 27.41 17.25 27C17.25 26.59 17.59 26.25 18 26.25H21C21.41 26.25 21.75 26.59 21.75 27C21.75 27.41 21.41 27.75 21 27.75Z" fill="#609C47"/>
<path d="M30 27.75H27C26.59 27.75 26.25 27.41 26.25 27C26.25 26.59 26.59 26.25 27 26.25H30C30.41 26.25 30.75 26.59 30.75 27C30.75 27.41 30.41 27.75 30 27.75Z" fill="#609C47"/>
</svg>
