<svg width="48" height="48" viewBox="0 0 48 48" fill="none" xmlns="http://www.w3.org/2000/svg">
<rect width="48" height="48" rx="24" fill="#EFF5ED"/>
<path d="M24 27.25C22.2061 27.25 20.75 25.7939 20.75 24C20.75 22.2061 22.2061 20.75 24 20.75C25.7939 20.75 27.25 22.2061 27.25 24C27.25 25.7939 25.7939 27.25 24 27.25ZM24 21.25C22.4839 21.25 21.25 22.4839 21.25 24C21.25 25.5161 22.4839 26.75 24 26.75C25.5161 26.75 26.75 25.5161 26.75 24C26.75 22.4839 25.5161 21.25 24 21.25Z" stroke="#609C47"/>
<path d="M21.2951 33.6262L21.2951 33.6261L21.2897 33.6276C20.7894 33.7626 20.2794 33.6909 19.8472 33.4315L19.8473 33.4315L19.8394 33.427L18.1194 32.437L18.1188 32.4366C17.6259 32.1538 17.2689 31.6941 17.113 31.1308C16.9663 30.5652 17.0412 29.9915 17.3237 29.4991L17.3246 29.4974C17.4897 29.2071 17.6088 28.9078 17.656 28.6181C17.7029 28.3303 17.6837 28.0144 17.5213 27.7374C17.2113 27.2086 16.5382 27.0303 15.9 27.0303C14.7161 27.0303 13.75 26.0642 13.75 24.8803V23.1203C13.75 21.9364 14.7161 20.9703 15.9 20.9703C16.5382 20.9703 17.2113 20.792 17.5213 20.2631C17.8349 19.7283 17.645 19.0487 17.3225 18.4993C17.0402 18.0062 16.9666 17.4227 17.1134 16.8682L17.1138 16.8665C17.2595 16.3079 17.6134 15.8493 18.1158 15.5657L18.1158 15.5657L18.1183 15.5643L19.8483 14.5743L19.8484 14.5743L19.855 14.5704C20.7421 14.0444 21.9272 14.3474 22.4696 15.2648L22.4696 15.2648L22.4713 15.2675L22.5893 15.4642C22.92 16.0344 23.4019 16.4753 24.015 16.4753C24.6294 16.4753 25.1119 16.0326 25.4427 15.4608C25.4427 15.4607 25.4428 15.4607 25.4428 15.4606L25.5513 15.2731C25.5516 15.2728 25.5518 15.2724 25.552 15.272C26.0945 14.348 27.277 14.0447 28.1739 14.5797L28.1738 14.5797L28.1806 14.5836L29.9006 15.5736L29.9012 15.574C30.3941 15.8568 30.7511 16.3165 30.907 16.8798C31.0537 17.4454 30.9788 18.0191 30.6963 18.5114L30.6954 18.5131C30.5303 18.8035 30.4112 19.1027 30.364 19.3924C30.3171 19.6803 30.3363 19.9962 30.4987 20.2731C30.8087 20.802 31.4818 20.9803 32.12 20.9803C33.3039 20.9803 34.27 21.9464 34.27 23.1303V24.8903C34.27 26.0742 33.3039 27.0403 32.12 27.0403C31.4819 27.0403 30.8087 27.2186 30.4987 27.7474C30.1851 28.2823 30.375 28.9619 30.6975 29.5113C30.9824 30.0089 31.0608 30.5903 30.9084 31.1357L30.9084 31.1357L30.9062 31.1441C30.7605 31.7027 30.4066 32.1613 29.9042 32.4449L29.9017 32.4463L28.1751 33.4344C27.8657 33.6047 27.5395 33.6903 27.21 33.6903C27.05 33.6903 26.8823 33.6678 26.7042 33.6259C26.2097 33.4882 25.8 33.1784 25.5387 32.743L25.4207 32.5463C25.09 31.9762 24.6081 31.5353 23.995 31.5353C23.3806 31.5353 22.898 31.978 22.5672 32.5499L22.4592 32.7364C22.4589 32.737 22.4586 32.7375 22.4583 32.738C22.1931 33.1872 21.7813 33.5007 21.2951 33.6262ZM25.8567 32.2898L25.8573 32.2908L25.9659 32.4784C25.9661 32.4788 25.9664 32.4793 25.9667 32.4797C26.1561 32.8104 26.4704 33.0433 26.8387 33.1354C27.1931 33.2239 27.5696 33.1841 27.8934 32.9914L29.6199 31.9934C29.9901 31.7798 30.2775 31.4228 30.3931 30.9891C30.5063 30.5647 30.451 30.1181 30.2331 29.7404L30.2322 29.7389C29.7242 28.8655 29.7069 28.0509 30.0341 27.4784C30.3586 26.9105 31.0688 26.5203 32.09 26.5203C33.0061 26.5203 33.74 25.7864 33.74 24.8703V23.1103C33.74 22.207 33.009 21.4603 32.09 21.4603C31.0688 21.4603 30.3586 21.0701 30.0341 20.5022C29.7069 19.9296 29.7242 19.1151 30.2322 18.2417L30.2331 18.2401C30.451 17.8625 30.5063 17.4159 30.3931 16.9915C30.2776 16.5584 30.0025 16.2163 29.642 15.9945L29.6353 15.9903L29.6283 15.9863L27.903 14.999C27.2278 14.595 26.3551 14.8365 25.9595 15.5059L25.9595 15.5059L25.9573 15.5098L25.8473 15.6998L25.8467 15.7008C25.3372 16.5856 24.6503 17.0003 23.99 17.0003C23.3308 17.0003 22.6449 16.5869 22.1357 15.7049L22.0281 15.5093L22.024 15.5019L22.0196 15.4945C21.6304 14.8406 20.7676 14.6095 20.0993 14.9977C20.0991 14.9978 20.0989 14.9979 20.0987 14.998L18.3701 15.9972C18.37 15.9972 18.37 15.9973 18.3699 15.9974C18.3698 15.9974 18.3698 15.9974 18.3698 15.9974C17.9997 16.211 17.7125 16.5679 17.5969 17.0015C17.4837 17.4259 17.539 17.8725 17.7569 18.2501L17.7578 18.2517C18.2658 19.1251 18.2831 19.9396 17.9559 20.5122C17.6314 21.0801 16.9212 21.4703 15.9 21.4703C14.9839 21.4703 14.25 22.2042 14.25 23.1203V24.8803C14.25 25.7836 14.981 26.5303 15.9 26.5303C16.9212 26.5303 17.6314 26.9205 17.9559 27.4884C18.2831 28.0609 18.2658 28.8755 17.7578 29.7489L17.7569 29.7504C17.539 30.1281 17.4837 30.5747 17.5969 30.9991C17.7124 31.4321 17.9875 31.7743 18.348 31.9961L18.3547 32.0003L18.3617 32.0043L20.085 32.9905C20.4162 33.1922 20.8036 33.2354 21.1537 33.1447C21.5345 33.0488 21.836 32.799 22.0251 32.4935L22.029 32.4872L22.0327 32.4808L22.1422 32.2917C22.1423 32.2916 22.1423 32.2915 22.1424 32.2913C22.6537 31.4126 23.3419 30.9903 24 30.9903C24.6603 30.9903 25.3472 31.4049 25.8567 32.2898Z" fill="black" stroke="#609C47"/>
</svg>
