<svg width="48" height="48" viewBox="0 0 48 48" fill="none" xmlns="http://www.w3.org/2000/svg">
<rect width="48" height="48" rx="24" fill="#EFF5ED"/>
<path d="M20.841 22.6197L20.8912 22.6215L20.9351 22.6142C20.9367 22.614 20.9394 22.6138 20.9432 22.6136C20.9546 22.613 20.9711 22.6125 20.9923 22.6125C21.0349 22.6125 21.0871 22.6144 21.1402 22.6185L21.1709 22.6209L21.2015 22.6195C23.4301 22.5171 25.1773 20.6862 25.1886 18.4425V18.44C25.1886 16.1339 23.3047 14.25 20.9986 14.25C18.6925 14.25 16.8086 16.1339 16.8086 18.44C16.8086 20.7096 18.5821 22.5402 20.841 22.6197ZM21.1586 23.12H21.1584H21.1582H21.1581H21.1579H21.1577H21.1575H21.1574H21.1572H21.157H21.1568H21.1567H21.1565H21.1563H21.1562H21.156H21.1558H21.1556H21.1555H21.1553H21.1551H21.155H21.1548H21.1546H21.1544H21.1543H21.1541H21.1539H21.1538H21.1536H21.1534H21.1533H21.1531H21.1529H21.1527H21.1526H21.1524H21.1522H21.1521H21.1519H21.1517H21.1516H21.1514H21.1512H21.1511H21.1509H21.1507H21.1506H21.1504H21.1502H21.1501H21.1499H21.1497H21.1496H21.1494H21.1492H21.1491H21.1489H21.1488H21.1486H21.1484H21.1483H21.1481H21.1479H21.1478H21.1476H21.1474H21.1473H21.1471H21.147H21.1468H21.1466H21.1465H21.1463H21.1462H21.146H21.1458H21.1457H21.1455H21.1453H21.1452H21.145H21.1449H21.1447H21.1445H21.1444H21.1442H21.1441H21.1439H21.1438H21.1436H21.1434H21.1433H21.1431H21.143H21.1428H21.1426H21.1425H21.1423H21.1422H21.142H21.1419H21.1417H21.1415H21.1414H21.1412H21.1411H21.1409H21.1408H21.1406H21.1404H21.1403H21.1401H21.14H21.1398H21.1397H21.1395H21.1394H21.1392H21.139H21.1389H21.1387H21.1386H21.1384H21.1383H21.1381H21.138H21.1378H21.1377H21.1375H21.1373H21.1372H21.137H21.1369H21.1367H21.1366H21.1364H21.1363H21.1361H21.136H21.1358H21.1357H21.1355H21.1354H21.1352H21.1351H21.1349H21.1348H21.1346H21.1345H21.1343H21.1341H21.134H21.1338H21.1337H21.1335H21.1334H21.1332H21.1331H21.1329H21.1328H21.1326H21.1325H21.1323H21.1322H21.132H21.1319H21.1317H21.1316H21.1314H21.1313H21.1311H21.131H21.1308H21.1307H21.1305H21.1304H21.1302H21.1301H21.1299H21.1298H21.1296H21.1295H21.1293H21.1292H21.129H21.1289H21.1288H21.1286H21.1285H21.1283H21.1282H21.128H21.1279H21.1277H21.1276H21.1274H21.1273H21.1271H21.127H21.1268H21.1267H21.1265H21.1264H21.1262H21.1261H21.1259H21.1258H21.1256H21.1255H21.1253H21.1252H21.1251H21.1249H21.1248H21.1246H21.1245H21.1243H21.1242H21.124H21.1239H21.1237H21.1236H21.1234H21.1233H21.1231H21.123H21.1228H21.1227H21.1226H21.1224H21.1223H21.1221H21.122H21.1218H21.1217H21.1215H21.1214H21.1212H21.1211H21.1209H21.1208H21.1206H21.1205H21.1204H21.1202H21.1201H21.1199H21.1198H21.1196H21.1195H21.1193H21.1192H21.119H21.1189H21.1187H21.1186H21.1184H21.1183H21.1182H21.118H21.1179H21.1177H21.1176H21.1174H21.1173H21.1171H21.117H21.1168H21.1167H21.1165H21.1165C21.0352 23.1098 20.951 23.1106 20.8745 23.1189C18.2612 23.0178 16.3086 20.9641 16.3086 18.44C16.3086 15.8561 18.4147 13.75 20.9986 13.75C23.5821 13.75 25.6881 15.8556 25.6886 18.439C25.6791 20.98 23.6942 23.0348 21.1803 23.12H21.1803H21.1803H21.1802H21.1802H21.1801H21.18H21.18H21.1799H21.1799H21.1798H21.1797H21.1797H21.1796H21.1796H21.1795H21.1795H21.1794H21.1793H21.1793H21.1792H21.1792H21.1791H21.179H21.179H21.1789H21.1789H21.1788H21.1788H21.1787H21.1786H21.1786H21.1785H21.1785H21.1784H21.1783H21.1783H21.1782H21.1782H21.1781H21.178H21.178H21.1779H21.1779H21.1778H21.1778H21.1777H21.1776H21.1776H21.1775H21.1775H21.1774H21.1773H21.1773H21.1772H21.1772H21.1771H21.1771H21.177H21.1769H21.1769H21.1768H21.1768H21.1767H21.1766H21.1766H21.1765H21.1765H21.1764H21.1763H21.1763H21.1762H21.1762H21.1761H21.1761H21.176H21.1759H21.1759H21.1758H21.1758H21.1757H21.1756H21.1756H21.1755H21.1755H21.1754H21.1754H21.1753H21.1752H21.1752H21.1751H21.1751H21.175H21.1749H21.1749H21.1748H21.1748H21.1747H21.1746H21.1746H21.1745H21.1745H21.1744H21.1744H21.1743H21.1742H21.1742H21.1741H21.1741H21.174H21.1739H21.1739H21.1738H21.1738H21.1737H21.1737H21.1736H21.1735H21.1735H21.1734H21.1734H21.1733H21.1732H21.1732H21.1731H21.1731H21.173H21.1729H21.1729H21.1728H21.1728H21.1727H21.1727H21.1726H21.1725H21.1725H21.1724H21.1724H21.1723H21.1722H21.1722H21.1721H21.1721H21.172H21.172H21.1719H21.1718H21.1718H21.1717H21.1717H21.1716H21.1715H21.1715H21.1714H21.1714H21.1713H21.1713H21.1712H21.1711H21.1711H21.171H21.171H21.1709H21.1708H21.1708H21.1707H21.1707H21.1706H21.1705H21.1705H21.1704H21.1704H21.1703H21.1703H21.1702H21.1701H21.1701H21.17H21.17H21.1699H21.1698H21.1698H21.1697H21.1697H21.1696H21.1696H21.1695H21.1694H21.1694H21.1693H21.1693H21.1692H21.1691H21.1691H21.169H21.169H21.1689H21.1688H21.1688H21.1687H21.1687H21.1686H21.1686H21.1685H21.1684H21.1684H21.1683H21.1683H21.1682H21.1681H21.1681H21.168H21.168H21.1679H21.1679H21.1678H21.1677H21.1677H21.1676H21.1676H21.1675H21.1674H21.1674H21.1673H21.1673H21.1672H21.1671H21.1671H21.167H21.167H21.1669H21.1669H21.1668H21.1667H21.1667H21.1666H21.1666H21.1665H21.1664H21.1664H21.1663H21.1663H21.1662H21.1662H21.1661H21.166H21.166H21.1659H21.1659H21.1658H21.1657H21.1657H21.1656H21.1656H21.1655H21.1654H21.1654H21.1653H21.1653H21.1652H21.1652H21.1651H21.165H21.165H21.1649H21.1649H21.1648H21.1647H21.1647H21.1646H21.1646H21.1645H21.1645H21.1644H21.1643H21.1643H21.1642H21.1642H21.1641H21.164H21.164H21.1639H21.1639H21.1638H21.1638H21.1637H21.1636H21.1636H21.1635H21.1635H21.1634H21.1633H21.1633H21.1632H21.1632H21.1631H21.163H21.163H21.1629H21.1629H21.1628H21.1628H21.1627H21.1626H21.1626H21.1625H21.1625H21.1624H21.1623H21.1623H21.1622H21.1622H21.1621H21.1621H21.162H21.1619H21.1619H21.1618H21.1618H21.1617H21.1616H21.1616H21.1615H21.1615H21.1614H21.1613H21.1613H21.1612H21.1612H21.1611H21.1611H21.161H21.1609H21.1609H21.1608H21.1608H21.1607H21.1606H21.1606H21.1605H21.1605H21.1604H21.1604H21.1603H21.1602H21.1602H21.1601H21.1601H21.16H21.1599H21.1599H21.1598H21.1598H21.1597H21.1596H21.1596H21.1595H21.1595H21.1594H21.1594H21.1593H21.1592H21.1592H21.1591H21.1591H21.159H21.1589H21.1589H21.1588H21.1588H21.1587H21.1587H21.1586Z" stroke="#609C47"/>
<path d="M32.1584 19.5C32.1584 21.5267 30.5772 23.1651 28.5594 23.25L28.5057 23.232L28.3999 23.2424C28.3248 23.2497 28.239 23.2261 28.1711 23.1761C28.105 23.1275 28.0801 23.0732 28.076 23.0314C28.0671 22.9403 28.0917 22.8686 28.1245 22.8235C28.1532 22.7838 28.1932 22.7563 28.2514 22.7474C28.3443 22.7403 28.4491 22.74 28.5584 22.74H28.5721L28.5858 22.7393C30.3108 22.6447 31.6584 21.2256 31.6584 19.49C31.6584 17.6939 30.2045 16.24 28.4084 16.24V16.2399L28.3962 16.2401C28.2743 16.2431 28.1584 16.1363 28.1584 16C28.1584 15.8661 28.2745 15.75 28.4084 15.75C30.4723 15.75 32.1584 17.4361 32.1584 19.5Z" fill="black" stroke="#609C47"/>
<path d="M16.0302 32.6348L16.0275 32.6331C14.7437 31.7833 14.1016 30.6655 14.1016 29.5C14.1016 28.3337 14.7446 27.2056 16.0288 26.3461C17.4303 25.4168 19.2934 24.9375 21.1791 24.9375C23.0653 24.9375 24.923 25.417 26.3139 26.3458L26.3143 26.346C27.591 27.1972 28.2416 28.3161 28.2416 29.48C28.2416 30.6465 27.5984 31.7747 26.314 32.6342C24.9123 33.5685 23.0542 34.05 21.1716 34.05C19.2879 34.05 17.4206 33.568 16.0302 32.6348ZM16.3042 26.774C15.2561 27.4727 14.6016 28.4297 14.6016 29.51C14.6016 30.583 15.269 31.5392 16.3041 32.226C17.6504 33.1285 19.426 33.5625 21.1716 33.5625C22.9173 33.5625 24.6931 33.1284 26.0394 32.2257C27.0873 31.527 27.7416 30.5702 27.7416 29.49C27.7416 28.4168 27.0739 27.4605 26.0384 26.7736C24.6923 25.8764 22.9169 25.445 21.1716 25.445C19.4261 25.445 17.6504 25.8765 16.3042 26.774Z" fill="black" stroke="#609C47"/>
<path d="M30.099 32.0546L30.099 32.0543C30.0714 31.9131 30.1585 31.7809 30.2948 31.7485C30.9826 31.6059 31.6334 31.3297 32.1523 30.927C32.8097 30.4299 33.2282 29.756 33.2282 28.99C33.2282 28.2254 32.8111 27.5508 32.1611 27.0622C31.6516 26.6693 31.0318 26.4046 30.3306 26.2428L30.3306 26.2428L30.328 26.2422C30.1954 26.2124 30.1064 26.0779 30.1363 25.9385C30.1668 25.8062 30.3016 25.7178 30.441 25.7484L30.5482 25.26L30.4403 25.7482C31.2376 25.9244 31.9181 26.2362 32.463 26.6561L32.463 26.6561L32.4675 26.6595C33.2894 27.2781 33.7282 28.1277 33.7282 28.99C33.7282 29.8491 33.2823 30.7009 32.4548 31.3326L32.4548 31.3326L32.4521 31.3347C31.8983 31.7634 31.1913 32.0833 30.4012 32.2395L30.3702 32.2457L30.3573 32.2499L30.3539 32.25L30.3382 32.25C30.2189 32.25 30.1217 32.1712 30.099 32.0546ZM30.2182 26.73C29.8182 26.64 29.5582 26.24 29.6482 25.83L30.2182 26.73Z" fill="black" stroke="#609C47"/>
</svg>
