<svg width="48" height="48" viewBox="0 0 48 48" fill="none" xmlns="http://www.w3.org/2000/svg">
<rect width="48" height="48" rx="24" fill="#EFF5ED"/>
<path d="M15.0098 27.7087C15.0098 32.1987 16.8098 33.9987 21.2998 33.9987H26.6898C31.1798 33.9987 32.9798 32.1987 32.9798 27.7087V23.2188" stroke="#609C47" stroke-width="1.5" stroke-linecap="round" stroke-linejoin="round"/>
<path d="M24.0005 24C25.8305 24 27.1805 22.51 27.0005 20.68L26.3405 14H21.6705L21.0005 20.68C20.8205 22.51 22.1705 24 24.0005 24Z" stroke="#609C47" stroke-width="1.5" stroke-linecap="round" stroke-linejoin="round"/>
<path d="M30.3108 24C32.3308 24 33.8108 22.36 33.6108 20.35L33.3308 17.6C32.9708 15 31.9708 14 29.3508 14H26.3008L27.0008 21.01C27.1708 22.66 28.6608 24 30.3108 24Z" stroke="#609C47" stroke-width="1.5" stroke-linecap="round" stroke-linejoin="round"/>
<path d="M17.6404 24C19.2904 24 20.7804 22.66 20.9404 21.01L21.1604 18.8L21.6404 14H18.5904C15.9704 14 14.9704 15 14.6104 17.6L14.3404 20.35C14.1404 22.36 15.6204 24 17.6404 24Z" stroke="#609C47" stroke-width="1.5" stroke-linecap="round" stroke-linejoin="round"/>
<path d="M24 29C22.33 29 21.5 29.83 21.5 31.5V34H26.5V31.5C26.5 29.83 25.67 29 24 29Z" stroke="#609C47" stroke-width="1.5" stroke-linecap="round" stroke-linejoin="round"/>
</svg>
