<svg width="48" height="48" viewBox="0 0 48 48" fill="none" xmlns="http://www.w3.org/2000/svg">
<rect width="48" height="48" rx="24" fill="#EFF5ED"/>
<path d="M15.1719 19.4375L24.0019 24.5475L32.7719 19.4675" stroke="#609C47" stroke-width="1.5" stroke-linecap="round" stroke-linejoin="round"/>
<path d="M24 33.6091V24.5391" stroke="#609C47" stroke-width="1.5" stroke-linecap="round" stroke-linejoin="round"/>
<path d="M14.3906 21.1686C14.3906 19.7886 15.3806 18.1086 16.5906 17.4386L21.9306 14.4686C23.0706 13.8386 24.9406 13.8386 26.0806 14.4686L31.4206 17.4386C32.6306 18.1086 33.6206 19.7886 33.6206 21.1686V26.8186C33.6206 28.1986 32.6306 29.8786 31.4206 30.5486L26.0806 33.5186C24.9406 34.1486 23.0706 34.1486 21.9306 33.5186L16.5906 30.5486C15.3806 29.8786 14.3906 28.1986 14.3906 26.8186V25.9986" stroke="#609C47" stroke-width="1.5" stroke-linecap="round" stroke-linejoin="round"/>
<path d="M29.0017 25.2416V21.5816L22.9317 18.0716L21.8817 17.4716L19.5117 16.1016" stroke="#609C47" stroke-width="1.5" stroke-linecap="round" stroke-linejoin="round"/>
</svg>
