<svg width="48" height="48" viewBox="0 0 48 48" fill="none" xmlns="http://www.w3.org/2000/svg">
<rect width="48" height="48" rx="24" fill="#EFF5ED"/>
<path d="M23.841 22.6197L23.8994 22.6217L23.9404 22.6135C23.9508 22.613 23.967 22.6125 23.9886 22.6125C24.033 22.6125 24.0877 22.6145 24.1403 22.6185L24.1709 22.6209L24.2015 22.6195C26.4301 22.5171 28.1773 20.6862 28.1886 18.4425V18.44C28.1886 16.1339 26.3047 14.25 23.9986 14.25C21.6925 14.25 19.8086 16.1339 19.8086 18.44C19.8086 20.7096 21.5821 22.5402 23.841 22.6197ZM24.1586 23.12H24.1584H24.1583H24.1581H24.1579H24.1577H24.1576H24.1574H24.1572H24.157H24.1569H24.1567H24.1565H24.1563H24.1562H24.156H24.1558H24.1556H24.1555H24.1553H24.1551H24.155H24.1548H24.1546H24.1544H24.1543H24.1541H24.1539H24.1538H24.1536H24.1534H24.1533H24.1531H24.1529H24.1528H24.1526H24.1524H24.1522H24.1521H24.1519H24.1517H24.1516H24.1514H24.1512H24.1511H24.1509H24.1507H24.1506H24.1504H24.1502H24.1501H24.1499H24.1498H24.1496H24.1494H24.1493H24.1491H24.1489H24.1488H24.1486H24.1484H24.1483H24.1481H24.1479H24.1478H24.1476H24.1475H24.1473H24.1471H24.147H24.1468H24.1466H24.1465H24.1463H24.1462H24.146H24.1458H24.1457H24.1455H24.1454H24.1452H24.145H24.1449H24.1447H24.1446H24.1444H24.1442H24.1441H24.1439H24.1438H24.1436H24.1434H24.1433H24.1431H24.143H24.1428H24.1427H24.1425H24.1423H24.1422H24.142H24.1419H24.1417H24.1415H24.1414H24.1412H24.1411H24.1409H24.1408H24.1406H24.1405H24.1403H24.1401H24.14H24.1398H24.1397H24.1395H24.1394H24.1392H24.1391H24.1389H24.1387H24.1386H24.1384H24.1383H24.1381H24.138H24.1378H24.1377H24.1375H24.1374H24.1372H24.1371H24.1369H24.1367H24.1366H24.1364H24.1363H24.1361H24.136H24.1358H24.1357H24.1355H24.1354H24.1352H24.1351H24.1349H24.1348H24.1346H24.1345H24.1343H24.1342H24.134H24.1339H24.1337H24.1336H24.1334H24.1333H24.1331H24.1329H24.1328H24.1326H24.1325H24.1323H24.1322H24.132H24.1319H24.1317H24.1316H24.1314H24.1313H24.1311H24.131H24.1308H24.1307H24.1305H24.1304H24.1302H24.1301H24.13H24.1298H24.1297H24.1295H24.1294H24.1292H24.1291H24.1289H24.1288H24.1286H24.1285H24.1283H24.1282H24.128H24.1279H24.1277H24.1276H24.1274H24.1273H24.1271H24.127H24.1268H24.1267H24.1265H24.1264H24.1262H24.1261H24.1259H24.1258H24.1257H24.1255H24.1254H24.1252H24.1251H24.1249H24.1248H24.1246H24.1245H24.1243H24.1242H24.124H24.1239H24.1237H24.1236H24.1234H24.1233H24.1231H24.123H24.1229H24.1227H24.1226H24.1224H24.1223H24.1221H24.122H24.1218H24.1217H24.1215H24.1214H24.1212H24.1211H24.1209H24.1208H24.1207H24.1205H24.1204H24.1202H24.1201H24.1199H24.1198H24.1196H24.1195H24.1193H24.1192H24.119H24.1189H24.1188H24.1186H24.1185H24.1183H24.1182H24.118H24.1179H24.1177H24.1176H24.1174H24.1173H24.1171H24.117H24.1168H24.1167H24.1166H24.1165C24.0352 23.1098 23.951 23.1106 23.8745 23.1189C21.2612 23.0178 19.3086 20.9641 19.3086 18.44C19.3086 15.8561 21.4147 13.75 23.9986 13.75C26.5821 13.75 28.6881 15.8556 28.6886 18.439C28.6791 20.98 26.6942 23.0348 24.1804 23.12H24.1803H24.1803H24.1802H24.1802H24.1801H24.18H24.18H24.1799H24.1799H24.1798H24.1798H24.1797H24.1796H24.1796H24.1795H24.1795H24.1794H24.1793H24.1793H24.1792H24.1792H24.1791H24.1791H24.179H24.1789H24.1789H24.1788H24.1788H24.1787H24.1786H24.1786H24.1785H24.1785H24.1784H24.1783H24.1783H24.1782H24.1782H24.1781H24.1781H24.178H24.1779H24.1779H24.1778H24.1778H24.1777H24.1776H24.1776H24.1775H24.1775H24.1774H24.1774H24.1773H24.1772H24.1772H24.1771H24.1771H24.177H24.1769H24.1769H24.1768H24.1768H24.1767H24.1767H24.1766H24.1765H24.1765H24.1764H24.1764H24.1763H24.1762H24.1762H24.1761H24.1761H24.176H24.1759H24.1759H24.1758H24.1758H24.1757H24.1757H24.1756H24.1755H24.1755H24.1754H24.1754H24.1753H24.1752H24.1752H24.1751H24.1751H24.175H24.175H24.1749H24.1748H24.1748H24.1747H24.1747H24.1746H24.1745H24.1745H24.1744H24.1744H24.1743H24.1742H24.1742H24.1741H24.1741H24.174H24.174H24.1739H24.1738H24.1738H24.1737H24.1737H24.1736H24.1735H24.1735H24.1734H24.1734H24.1733H24.1733H24.1732H24.1731H24.1731H24.173H24.173H24.1729H24.1728H24.1728H24.1727H24.1727H24.1726H24.1725H24.1725H24.1724H24.1724H24.1723H24.1723H24.1722H24.1721H24.1721H24.172H24.172H24.1719H24.1718H24.1718H24.1717H24.1717H24.1716H24.1716H24.1715H24.1714H24.1714H24.1713H24.1713H24.1712H24.1711H24.1711H24.171H24.171H24.1709H24.1708H24.1708H24.1707H24.1707H24.1706H24.1706H24.1705H24.1704H24.1704H24.1703H24.1703H24.1702H24.1701H24.1701H24.17H24.17H24.1699H24.1699H24.1698H24.1697H24.1697H24.1696H24.1696H24.1695H24.1694H24.1694H24.1693H24.1693H24.1692H24.1692H24.1691H24.169H24.169H24.1689H24.1689H24.1688H24.1687H24.1687H24.1686H24.1686H24.1685H24.1684H24.1684H24.1683H24.1683H24.1682H24.1682H24.1681H24.168H24.168H24.1679H24.1679H24.1678H24.1677H24.1677H24.1676H24.1676H24.1675H24.1675H24.1674H24.1673H24.1673H24.1672H24.1672H24.1671H24.167H24.167H24.1669H24.1669H24.1668H24.1667H24.1667H24.1666H24.1666H24.1665H24.1665H24.1664H24.1663H24.1663H24.1662H24.1662H24.1661H24.166H24.166H24.1659H24.1659H24.1658H24.1658H24.1657H24.1656H24.1656H24.1655H24.1655H24.1654H24.1653H24.1653H24.1652H24.1652H24.1651H24.165H24.165H24.1649H24.1649H24.1648H24.1648H24.1647H24.1646H24.1646H24.1645H24.1645H24.1644H24.1643H24.1643H24.1642H24.1642H24.1641H24.1641H24.164H24.1639H24.1639H24.1638H24.1638H24.1637H24.1636H24.1636H24.1635H24.1635H24.1634H24.1633H24.1633H24.1632H24.1632H24.1631H24.1631H24.163H24.1629H24.1629H24.1628H24.1628H24.1627H24.1626H24.1626H24.1625H24.1625H24.1624H24.1624H24.1623H24.1622H24.1622H24.1621H24.1621H24.162H24.1619H24.1619H24.1618H24.1618H24.1617H24.1617H24.1616H24.1615H24.1615H24.1614H24.1614H24.1613H24.1612H24.1612H24.1611H24.1611H24.161H24.1609H24.1609H24.1608H24.1608H24.1607H24.1607H24.1606H24.1605H24.1605H24.1604H24.1604H24.1603H24.1602H24.1602H24.1601H24.1601H24.16H24.16H24.1599H24.1598H24.1598H24.1597H24.1597H24.1596H24.1595H24.1595H24.1594H24.1594H24.1593H24.1592H24.1592H24.1591H24.1591H24.159H24.159H24.1589H24.1588H24.1588H24.1587H24.1587H24.1586Z" stroke="#609C47"/>
<path d="M19.0302 32.6348L19.0275 32.6331C17.7437 31.7833 17.1016 30.6655 17.1016 29.5C17.1016 28.3337 17.7446 27.2056 19.0288 26.3461C20.4303 25.4168 22.2934 24.9375 24.1791 24.9375C26.0653 24.9375 27.923 25.417 29.3139 26.3458L29.3143 26.346C30.591 27.1972 31.2416 28.3161 31.2416 29.48C31.2416 30.6465 30.5984 31.7747 29.314 32.6342C27.9123 33.5685 26.0542 34.05 24.1716 34.05C22.288 34.05 20.4206 33.568 19.0302 32.6348ZM19.3042 26.774L19.3042 26.774C18.2561 27.4727 17.6016 28.4297 17.6016 29.51C17.6016 30.583 18.269 31.5392 19.3042 32.226C20.6504 33.1285 22.426 33.5625 24.1716 33.5625C25.9174 33.5625 27.6931 33.1284 29.0394 32.2257C30.0873 31.527 30.7416 30.5702 30.7416 29.49C30.7416 28.4168 30.0739 27.4605 29.0384 26.7736C27.6923 25.8764 25.9169 25.445 24.1716 25.445C22.4261 25.445 20.6504 25.8765 19.3042 26.774Z" fill="black" stroke="#609C47"/>
</svg>
