<svg width="48" height="48" viewBox="0 0 48 48" fill="none" xmlns="http://www.w3.org/2000/svg">
<rect width="48" height="48" rx="4" fill="#EFF5ED"/>
<path d="M30.0001 19.16C29.9401 19.15 29.8701 19.15 29.8101 19.16C28.4301 19.11 27.3301 17.98 27.3301 16.58C27.3301 15.15 28.4801 14 29.9101 14C31.3401 14 32.4901 15.16 32.4901 16.58C32.4801 17.98 31.3801 19.11 30.0001 19.16Z" stroke="#609C47" stroke-width="1.5" stroke-linecap="round" stroke-linejoin="round"/>
<path d="M28.9695 26.4399C30.3395 26.6699 31.8495 26.4299 32.9095 25.7199C34.3195 24.7799 34.3195 23.2399 32.9095 22.2999C31.8395 21.5899 30.3095 21.3499 28.9395 21.5899" stroke="#609C47" stroke-width="1.5" stroke-linecap="round" stroke-linejoin="round"/>
<path d="M17.9695 19.16C18.0295 19.15 18.0995 19.15 18.1595 19.16C19.5395 19.11 20.6395 17.98 20.6395 16.58C20.6395 15.15 19.4895 14 18.0595 14C16.6295 14 15.4795 15.16 15.4795 16.58C15.4895 17.98 16.5895 19.11 17.9695 19.16Z" stroke="#609C47" stroke-width="1.5" stroke-linecap="round" stroke-linejoin="round"/>
<path d="M18.9995 26.4399C17.6295 26.6699 16.1195 26.4299 15.0595 25.7199C13.6495 24.7799 13.6495 23.2399 15.0595 22.2999C16.1295 21.5899 17.6595 21.3499 19.0295 21.5899" stroke="#609C47" stroke-width="1.5" stroke-linecap="round" stroke-linejoin="round"/>
<path d="M24.0001 26.63C23.9401 26.62 23.8701 26.62 23.8101 26.63C22.4301 26.58 21.3301 25.45 21.3301 24.05C21.3301 22.62 22.4801 21.47 23.9101 21.47C25.3401 21.47 26.4901 22.63 26.4901 24.05C26.4801 25.45 25.3801 26.59 24.0001 26.63Z" stroke="#609C47" stroke-width="1.5" stroke-linecap="round" stroke-linejoin="round"/>
<path d="M21.0897 29.7801C19.6797 30.7201 19.6797 32.2601 21.0897 33.2001C22.6898 34.2701 25.3098 34.2701 26.9098 33.2001C28.3198 32.2601 28.3198 30.7201 26.9098 29.7801C25.3198 28.7201 22.6898 28.7201 21.0897 29.7801Z" stroke="#609C47" stroke-width="1.5" stroke-linecap="round" stroke-linejoin="round"/>
</svg>
