<svg width="48" height="48" viewBox="0 0 48 48" fill="none" xmlns="http://www.w3.org/2000/svg">
<rect width="48" height="48" rx="24" fill="#EFF5ED"/>
<path d="M19.4795 30.35L22.5795 32.75C22.9795 33.15 23.8795 33.35 24.4795 33.35H28.2795C29.4795 33.35 30.7795 32.45 31.0795 31.25L33.4795 23.95C33.9795 22.55 33.0795 21.35 31.5795 21.35H27.5795C26.9795 21.35 26.4795 20.85 26.5795 20.15L27.0795 16.95C27.2795 16.05 26.6795 15.05 25.7795 14.75C24.9795 14.45 23.9795 14.85 23.5795 15.45L19.4795 21.55" stroke="#609C47" stroke-width="1.5" stroke-miterlimit="10"/>
<path d="M14.3799 30.3499V20.5499C14.3799 19.1499 14.9799 18.6499 16.3799 18.6499H17.3799C18.7799 18.6499 19.3799 19.1499 19.3799 20.5499V30.3499C19.3799 31.7499 18.7799 32.2499 17.3799 32.2499H16.3799C14.9799 32.2499 14.3799 31.7499 14.3799 30.3499Z" stroke="#609C47" stroke-width="1.5" stroke-linecap="round" stroke-linejoin="round"/>
</svg>
