<svg width="24" height="25" viewBox="0 0 24 25" fill="none" xmlns="http://www.w3.org/2000/svg">
<path d="M18 19.3601H17.24C16.44 19.3601 15.68 19.6701 15.12 20.2301L13.41 21.9201C12.63 22.6901 11.36 22.6901 10.58 21.9201L8.87 20.2301C8.31 19.6701 7.54 19.3601 6.75 19.3601H6C4.34 19.3601 3 18.0301 3 16.3901V5.4801C3 3.8401 4.34 2.51013 6 2.51013H18C19.66 2.51013 21 3.8401 21 5.4801V16.3901C21 18.0201 19.66 19.3601 18 19.3601Z" stroke="#609C47" stroke-width="1.5" stroke-miterlimit="10" stroke-linecap="round" stroke-linejoin="round"/>
<path d="M11.9999 10.5002C13.2868 10.5002 14.33 9.45699 14.33 8.17016C14.33 6.88334 13.2868 5.84021 11.9999 5.84021C10.7131 5.84021 9.66992 6.88334 9.66992 8.17016C9.66992 9.45699 10.7131 10.5002 11.9999 10.5002Z" stroke="#609C47" stroke-width="1.5" stroke-linecap="round" stroke-linejoin="round"/>
<path d="M16 16.1603C16 14.3603 14.21 12.9003 12 12.9003C9.79 12.9003 8 14.3603 8 16.1603" stroke="#609C47" stroke-width="1.5" stroke-linecap="round" stroke-linejoin="round"/>
</svg>
